<mxfile host="app.diagrams.net" modified="2023-03-08T11:23:16.183Z" agent="5.0 (Macintosh; Intel Mac OS X 10_15_7) AppleWebKit/537.36 (KHTML, like Gecko) Chrome/110.0.0.0 Safari/537.36" etag="SszeUhGbWk8f0sB5MRA1" version="21.0.2" type="github">
  <diagram id="lUdaiO9vyYA_eTEFXgUp" name="第 1 页">
    <mxGraphModel dx="2927" dy="397" grid="1" gridSize="10" guides="1" tooltips="1" connect="1" arrows="1" fold="1" page="1" pageScale="1" pageWidth="827" pageHeight="1169" math="0" shadow="0">
      <root>
        <mxCell id="0" />
        <mxCell id="1" parent="0" />
        <mxCell id="kVqAeBF7xhMF057fxwR8-1" value="" style="shape=image;verticalLabelPosition=bottom;labelBackgroundColor=default;verticalAlign=top;aspect=fixed;imageAspect=0;image=data:image/png,iVBORw0KGgoAAAANSUhEUgAAAOAAAADhCAMAAADmr0l2AAAAq1BMVEX29vYnJjbw8PDy8vInJjf////4+Pju7u75+fklJDT8/PwjIjMAAB4AAB8AABwhIDEYFys6OUcAABgbGS0AABURDyYdHC4UEygKByIaGCw0M0EsKzsgHy/X19mAgIZmZW/i4uSTkpnLy86npqw9PElhYWtSUVxFRFCwsLRxcXmDhIqcnKINCyIGACLDw8eMjJJWVmCsrK8xLkC8u753dn8UEixKSlTZ2twzMz2m9OJvAAAVcklEQVR4nNVdB3viuhJ1k2TLgAHHJSaEFloIJLmkvP//y54KJLEkgw0u7Nm7u9/mJljjGU2zPEfTKga0MbaN4X72+jj/emL4mj++bvZTZANsw6qvXy2IcGg3GSX9bRD5oee6rkV+uV7oR/G2/99oskP4HxUSUungdLOI4yh0dUvXLfL7B+wfThjFwWIy1YDd9HKLA2I8fU5akaefgddtJ89TcjOaXnEh2ABtklaXae48XH+bbMb/kBoxGK77kZtHth8Zo/56CHDTK88FG+8WnTCX6lLw+4sdvn0tQjB9a53deDIsAq/zNgU3vhfBeN0Pi4t3hNcZjUHTMpyAbU+CC4zzL/yXiX2jdgo1MO0FV0nHECQ3aqe2/Xp3weaT4d293qIS8feyBPVxfC6/by5igH1Qivo4ws/9bfkaCJ5bTnnykTS19XpLOoRwFJ9ZsRt2oyBudTqtdpuUFvc+uR8n/W08up2NaKNl99RavW4cDOa0BBx+EwynpDicDz633ZNGHS3RjUhooyTMUAf5YhgEX5PdGABMKz8Cm5bAGAC02yy6cZitxzAZ34SZ2mM9UxNu9DlfjdWFO5EToP2o++JliRjq4xvQ4Qn5wtZyhsDJSo/IuPrKTO68G5CQ26dSvP58is/XsbQyHt1l2PhDghpOaqD2pJbP68yHpITNszxog+EoowIJe2blMpwEniv9pxMvp6BAM4mI+BUrK+T7t0Z7UuDxRXnfo03R0tXG776v+qzgo8GcBqxaqq2zfbugqIN4PG8rBLRas8YktId91T3vFFYfB8Szjqu4X/1hU64UJgrP4L1cXs6BoRdakojuoNRVF1jORyTLd/+Erkg/sPH1KX9md92IkeJ9S17L55t2lT3Z2jqQrbSzbyBng8ZA9uvBiCSb130sXst1s+s1EO/Bo2ygn+vr7zQEH7HkmrskVtQsosqDlhOUIR59Slban9btScGX5EHDZTlJB8RvUsj3nmrutOH9Vtoog7IKVGj2pLsXr2r1M9CWluC8DPPl1jlgf987gpXWHAzxSurBbN9LDFaKEBTMalQhhIkYIvxRqcFYSiIsosL6dqEt7UAnNMu9PBSirFXnLoRYcqHtsnMNPBXDkLusTUB72hFcQDgv24tDsBZjRWtXVyzEH8K1rfa49P0Bx2JSGpaQJ+W7tCEmad3n8tN9iCdCUmp1yr+NSuB34cpOF5UWAn8BDV1w1XVFCvAmuJjuayX1Gt4IN9Jd1lIXQnQnWOhnNaYDkdiRvKvFRiUL9asquMHzffpKUS02CtbCjd1Oi1URuVu59rfQZvPearBRqAnyuUn+GAjJL4P8ygmpJotqqOztqZCmRZtcdkNkg6ZBZDOhkdfl4pmwG+IaYj3eCFGwn2fnE8UZhmlCiDTTzG2kkj/rTqrfhGCUNlG3d3ZfUMUZRCqT/oE0BI28hgYWKRu1HqrfhFKl1D11WoAKAqlZEqE0AxIdmlTE3AIK5mLpTu4fvRRSihjvsgU02J4jmjMNqjWTqBCRr5q5vYw9bacF3FYeCe2dUMu3lI6Nfs0gW434EyobZDZKTdWkWzH31aAmbPi48hYwnqV7656qSoMmMkxE1Eb0pTEBqQpNGiFMWChrxUJaWL2XwUJ24QuP7yDVkUHFgVRdVFimNao4QyuckouXCyt/TCE60VT2BI/7i/gU6laoMZoGYl+HxaXTaHcrHQmrz2WEboUV74+hl2jIpH9Ag5smiXrUOhH5ImK77hL3YE/TW95Jivw0pPZTDNAcpM6kWe0hTVFYCGA6Y86EuE/qLllooNG94EX+XA6OO2kB3fxxgq+q6BUNodkVI2p/JHozuSDTH/2P37rc8eDE9dKH/OLc2ahB9kaBiHS8IBJMRkcs0EH2F03CaChgIa+c5xSakFfkaFvA391CjargBVH/j3CDJOkxwejHsA1naMahWignIEP8lRawfeaBPWTC0WyQxiStuIDjQ0/dsvSk10v0p+NHmezzYIFUOhfE/sgJAfktpaUKNU5o0g1YuB1tD1nulCQO/+uBCQipUzGJwzSu3nQihHT7RMFksowQ0vTQPNxxZlLFwATsDXSiO4JB72FhQ4Tg8UPLTxTBPKeAfPcb3HeS33xVxeSjEeC7RcSiovUcYqU9/YlKZRboQxSEqMGt9KjXYA6N7ROWPkHzEJyoW895FZY/mtT1m8TJJMkgcZiJOr3BE6zALv/gxB7kq0J0VSbthLCoQG80kazYqkySO2smi99w3HcSJ0n0ZMBsdDAomD0XBVxmeVGTJoEsHhjMtVHnycMeky1fegF5LmnSsI0QkRGi0GGbMOkxX+qEFVegQuak99HBnBBVG1kPokGKVZsaoiZaZDn0R1nFikg2ycpxsncT1yLxoZdwFertavtcEAnHNQN0yAa5kGzrcfUZhxXnBdWcRj+NuFqTla2sONeeXGvw3+9tlTd9qZBy0QFiLR5arpgsuWApIvUpBtt2eW83/0GWXfI8zGR9FUPDi4f0Ha22xBYbCMlC4xWLyctntqqf5KKIMfHAdti/NAHiTTHDFurBiktsoTM6SOaY7hTqWA4WZXADLQwmIDSRyS2A7l7ErjhJtywqLrGB8Kx18Ih/VkWTJ9Y6uOiT6T05xAYq6I95CyW25Qwq3YN4KTTv323WvWImxVR3sY+jmZ3JsnIT/fmcQzL6i36lrzagtI/Rox0Pf6xFd11qSEMDMpBY+kAkPNIKqjzdgcUm5csY0ZWVUZCxuKmwbyCkFpUeDRCbau7/aNAqI++Fmemz+FTSiSoUEAzSZ9bCdWn7IVP/ttDIqzLUw2EndTbWquMRLxwL28J/rCxQgFchUTvXsCgDEAhtIOe+qnIC2sJBEset4z0fLN7WyvyovRMeJovPCSq6rPgM2/uqSEAwT+e9NTxbYsAvwiGydjVuxh4Ku93ql3xmMwP4UYj14bwSyxHz0OoO5Aiwp0L+VI0K7W/pMnWdp8Q94ZSc91bB3gAjQYGOe+VbNbkhnSTRW+XvftlOKjrzpwBEXWGugzsoO0BB/CS+fl79AYQfgEfxuHFU9t0Fm1g68Fvfyy/2d0u4ulXyy0X2d198f6lV5+tL4pN6eiSvzOY9hEshxuthFY4sE/a39OpSqa9pgmfpJcKKsonMFUiH/vVteW9Lg5X0PnZYx1HRP4DjO+kdv86JQ12FgGnfJ/Xxln73XfMLhOBVMiKnNSxFQnscSC/PdmsfFwA1+RVeNypjAIw9tqS3B537yk8ZSsD7tmSk3uB6CTFSjP9o1/t6JAPEo3tpIZ537bwwPB7I8pEQ0cDEDhu58iAurzu9ZrNAPHQVA4KiZubm4L2Yz9B92FldkVGBfV9+Od9qNWCgfDmPill4Vufx0nlhNn4VX6ph+mtm0oPGjiGpxgEFX+OLlIjHb4rpbJbXa26uE0ShYoyP5UWz4gNXIFjdq26X09AG5MBT5cQ/d/s1LKZECMZvbcdSjN8pLT+6DHglvu16ELH1gUDuDgPExmtLOfzK6pf59volADPF0BWqiPvOK8pnqBCgSTtjdmB70viUSvAqVU4HdOPH77OD1SDG4+dAMXmH3aa4yYlVR4BX1awptkC/87Y6NRoP0sF483Y3a/bfTchHJRT7X7/wPqP5+xgL0w3pCXwiHBivRt2X7KHO7duQjzaIsiVk4ymTj9kUsfmUHAAANHz/6AVxmD121WpNbmYAPlgpMqw/S3X8YBvfL9fPrxuC1+f1MozjwFfNGPtFp2n/+Rdg2j0xKJTDcUO/GxF0/dAVp6lI98Tb7m5IPppmLdWe8EJET7c2p9mGH+3Sxhi7rbXZ+GBRCWAfXTkG/ogwXt2Me/kLgKR28EXwLpn9WD1sAKfPZQhoPTzutFsjnqBzbB+tdikK1HU/fvjIMz23NthgPFu270vyMXQ8pRO2ejfDAoPB8COSW7XXwg1e1tPTI57rALHN/WJ7IuG6AlbYXq4a5CuiF8bwPYlLZCkQ4cX6TGss4kOszSz1bOXy4AbhxmxGi1R7L5XY5i+YwwkGRIu1i2iDfa9q7R3hviSrmingIBi+tYuJ5zheGPoMYegpuv4nYDnxV51MNxAbH51cQd0icoVRELfj2E++5qPnR4rRfNF7iAmCiPhfeSyzCl5rjeqyUxuv/JMEGke4pM69T0aT2W6IIGA4FvQA2Oh7N5uMev428L08+vSDWT12CsaLc4UR0YkXtbvLx9WQdSpsxcIotQbj1Riunr/CdvRwXpXx17DqLBwS9c3ic9bp+PHL22aKcB52SCYmmm7eohf/3K724k3VRDBEfbGqwf4Lt9uynosxX0ImpbF7/q/TPSmjpb98fVepRAhWp9Vn+a3B69S+aK9QIYeTQcs/af8PrVl17tQ211k9Xobw5f5jehUzq43B9PHhZPJnteZGRckb/k6iLOskX/bbi715fYVjA23/tu2eoGXynWkVElLzzL6zVhR8DHE516UUKY/dz+yuqbudlR8SIX5UPUbicKL7CSqzPKUkqX6QvRlb67Ijom2+KVgEDgj88hN+iM2ZF2TmOdFXubRaeDxQErJQdOMNrCCJguRDN5F4tPgHvltmZxhPI08V/Rjz16NRld8mWnwO/AzOMbfE3j7Yx+obaXmt0Tj/k+rigGC8bmXF/vaqJAnBTDpefJAvSHZV578Q7DKJRVubUiQEs4ynf15/YtfQL8H2pCWebz5KWMYTfDDJyF6Cp8pzew4IvpcZ/I3x9e8ugok6/LntSX3tdRtvMvoH22slzJDP6g5qUt9xHcNE/fzxSh1mPX1v1/78ztbWygM5VntyzelGpX+x3O17/W08mgsrzbR9uS8FKuooEtsfyjl8Xng5w1BVjFqtS+Mhnnbk+G7pwVdV9dg52OZCGRL7l53Xw9+RyiS2H83x45KSRnluLL7EpKCh4qYrJ7ZeDrBRRWXXvWDwEl6o0txW06dzwLvKL4TLwgkx+FCYu3PX/OkcsLtTZP6Fz3WDd8VBV7e1q51jTbG06VbhG7bFgoX0CjuTL6ik2VMUEE9VD8w7RRandDBudBPyaTR+fcoSFnI0YK14uNJqfv8dAXYKX1rgDUP8rvj5/v5m5GOeRnYRubehPW6Lpx0tvfHT7ymQxFTBkJuXz1Ym/iJ3p/nT72mAiewGvSRXNAQb+UeDukir8gMrAnWQ521++C11eC1/0Xj0kwDhm1xb5HnX3l5IP+fqTbPCq2AjSwoW3tNZI8XvW+EFaOJgmqn/zgEPZVcanPakkE5Clwy03Ryd+GmoXitqnZnoAdZSDdEQE3UeKBKSM9OJZN5GOqTiBjcgBzQlLlKScJ3aT4oQ2L6VDFQBKE/V0d2nEw8T8F7K0eJbi/Bp0Hgv7Kk4ezwg1P4n1pLesoKHxWV+mDRhVXe8zKkJePYifLPVKn2YYMmT1e2h9K57kGV00BQ5KUufZGQeyN1KhGJqSJiRl0iUlMSDlsjtSces8+HI5Q7+tyVPmjG+C5rSiwH9XSmPN+n7kIxGiw3ZZxRvJcLeSZ50q1ShRPan+/OrIwS9EBuHTOebQ2Ry9rpyU1s8F7PnSLULIfZEVcfXv6LPZtJzAh1GoWUS2VDZNjqW0ssXxbfhlfht19EHM75I6lQ4uRv7g7LX0entJRNUgGfx2aGK1VKcvqxb3SssiU7DphQAB/Y6OpGcT6inQpZ9LAMi4YSiary5NBZVbci5cKBaQZxJkU2lZwRofGz+VbKoASZpFVr6di9KKJHPOtFlSTazSuJHDkwJVC7GzFclcwrUxIO03pvw3FeavUxKx8Iu1GSckVQ2zpjDuNAQYnx99Ix2aQJJkOdlivOcsaBk3QlyuzpG9Al/RtAz9joTmofth/ITsFwOaH4KMfyeBnu6qsM3QHEmKknSci+KGCDiTgRyvjiDURxolxFBXAKIXwUFuTqjBTxuC4FMVKcxMKd8nDiAGiUjY+Hsg5xBRTtQB9UAkXROd7Z7yuZyZF4CH4KLyTfRmgUDbpcmS6I5dRHznZXKI+PPyFPHGug9PRzZnA6RAmppGhC6R8/feeNAsAt5WDiwKZq12WUKpGw6LD1Jej1KnBQzmgy+FnsvKNhbnKhzIY8FjIjvyKpIGfHMI/kYPHxXrcCLB2tgWZQyMHEo+1ywYpkvW4sYBK2XU5PMTOPA8slrHyYi/Y+xdDXWoLJX0aBH6ZKcQU93kp4TzjGj1WNopRsbrqsK8scvHUmBeJrJ1Mft8jKi1itxvKKpDdykl9BGNbFPvffff+FYOzDeSMQjahdDyV8Q44lDBpeI+ROjCF1VuYCcDpPmgdAAH0R5Cd+FlMAo6f6YoTR0WXqGwRlyICdSYyJxT2Jym2zGLpkDoTpiW83Udse3LhMmJvGjRzWJtA6u/rsDD/RuiP1pMA417ks4T1wTDpODrYdlgpR+kPo7+8k7iHbwJN3DRrOHQiFxZGDn5TizYxq7GWUVSzghK4Ua2XKHtI9bEGWrYwUYrVIMMHF6vcEfZ3Jkm5Qy1eNAZEanSak9kflDJk/dknHoQjQDw+BMXsYhn2froomvPYwGfxX4Q1sm8lY4Pv26gXhk40nXDxs5I9ltzjINxqnHiIxNjZdhjDuSrQo76a3mfbFNCI30K7QW86Gs9cVrA6o+ZpkaN4fKa4NMMIJmxjLHyCM1xg7FKjMWpLDoLCPWk7CnQm+YmS5rgJmsQURVSLNWo/5BwiKM1KpM2jIw0A9FlMQRw5nIyRZMC9g24YH5jmbj9FO0Q3xoHAdKROY02YLS99wUGp/cW4p5GslD2Tfz/MSEvN1wA9JR8OSQVy+GtCoskPYy9nqoJeli+OB7yI8jrr1bEU5jDXJk8NRJtSopHviUY3YsPOjmQYI2G0yE2Kc0vvV+wTrjme0rqW6nnRkpEY14iUHNszl/mQW+qqz/C01hpkKwsiW1el+4kXouH860QLBALH3/jCUf43/c7jP5s8CvqentFqkJNfyUCv9WpYyQVUNgKNUdx9agEBy3NTDgVQYoMpn0DU10ov4tnkvLDUOYxLMdatO0E3V6/7CFys/Igp22EoiDqyFqqwtYcJnRRpukZyQfi91/FGLQ8181YaJk8P5vCyi40XCtCTNB47oo8KqB2H5xF5qwK+Pvf9mJ0uec6dov0Qbpcj6ojyKuCkAkFLe6lv6n3r25/LoYQHrCtaVrg5R8jvdPRwkiYE8YtKOl8+9DI+rfBRilRkU7T0IcVJ2g+acgHEjzH7U0S9vdP52JarQTkSrq+0NGiPEj4s29olQcePbnWeDnB9AgnP+k2/G68aHB1wN//OgwWHBqi+c+HZ3kdvuv9U4prQYQb/qRq1uuf/dx/Mr3ZDlwvyaX8UHdHvB4s9Ct5esQEwX+H/OFTD1MtPuOAAAAAElFTkSuQmCC;" parent="1" vertex="1">
          <mxGeometry x="640.4300000000001" y="2139.75" width="189.15" height="190" as="geometry" />
        </mxCell>
        <mxCell id="JBZXjR4z_USi4EaJgnGG-16" value="" style="edgeStyle=orthogonalEdgeStyle;rounded=0;sketch=1;hachureGap=4;jiggle=2;curveFitting=1;orthogonalLoop=1;jettySize=auto;html=1;fontFamily=Architects Daughter;fontSource=https%3A%2F%2Ffonts.googleapis.com%2Fcss%3Ffamily%3DArchitects%2BDaughter;fontSize=16;" parent="1" source="kVqAeBF7xhMF057fxwR8-2" target="kVqAeBF7xhMF057fxwR8-6" edge="1">
          <mxGeometry relative="1" as="geometry">
            <mxPoint x="735" y="2482.25" as="targetPoint" />
          </mxGeometry>
        </mxCell>
        <mxCell id="kVqAeBF7xhMF057fxwR8-2" value="&lt;p style=&quot;line-height: 140%; font-size: 30px;&quot;&gt;&lt;br&gt;&lt;/p&gt;" style="rounded=1;whiteSpace=wrap;html=1;shadow=0;glass=0;sketch=1;fillWeight=2;hachureGap=12;hachureAngle=-41;jiggle=1;curveFitting=1;simplification=0;strokeColor=none;strokeWidth=2;fontFamily=Architects Daughter;fontSource=https%3A%2F%2Ffonts.googleapis.com%2Fcss%3Ffamily%3DArchitects%2BDaughter;fontSize=30;fontColor=#666666;fillColor=#95D2F5;" parent="1" vertex="1">
          <mxGeometry x="635.0000000000001" y="2131" width="200" height="207.5" as="geometry" />
        </mxCell>
        <mxCell id="JBZXjR4z_USi4EaJgnGG-13" value="" style="edgeStyle=orthogonalEdgeStyle;rounded=0;sketch=1;hachureGap=4;jiggle=2;curveFitting=1;orthogonalLoop=1;jettySize=auto;html=1;fontFamily=Architects Daughter;fontSource=https%3A%2F%2Ffonts.googleapis.com%2Fcss%3Ffamily%3DArchitects%2BDaughter;fontSize=16;entryX=0.535;entryY=-0.016;entryDx=0;entryDy=0;entryPerimeter=0;" parent="1" source="kVqAeBF7xhMF057fxwR8-6" edge="1">
          <mxGeometry relative="1" as="geometry">
            <mxPoint x="1166.65125" y="2948.204" as="targetPoint" />
          </mxGeometry>
        </mxCell>
        <mxCell id="kVqAeBF7xhMF057fxwR8-6" value="&lt;p style=&quot;line-height: 140%; font-size: 30px;&quot;&gt;&lt;font color=&quot;#333333&quot;&gt;&lt;b&gt;csd-counter&lt;/b&gt;&lt;/font&gt;&lt;/p&gt;" style="rounded=1;whiteSpace=wrap;html=1;shadow=0;glass=0;sketch=1;fillWeight=2;hachureGap=12;hachureAngle=-41;jiggle=1;curveFitting=1;simplification=0;strokeColor=#666666;strokeWidth=2;fontFamily=Architects Daughter;fontSource=https%3A%2F%2Ffonts.googleapis.com%2Fcss%3Ffamily%3DArchitects%2BDaughter;fontSize=30;fontColor=#666666;fillColor=#95D2F5;" parent="1" vertex="1">
          <mxGeometry x="570" y="2660" width="330" height="140" as="geometry" />
        </mxCell>
        <mxCell id="JBZXjR4z_USi4EaJgnGG-4" value="" style="shape=image;verticalLabelPosition=bottom;labelBackgroundColor=default;verticalAlign=top;aspect=fixed;imageAspect=0;image=data:image/png,iVBORw0KGgoAAAANSUhEUgAAARIAAAC4CAMAAAAYGZMtAAABO1BMVEX///83NTW75vvT7/wSh7E0MjIxLy+/vr63tra6ubkqKCgfHBwuLCz7+/sAhK+5uLgjICAAfavw8PAmJCQAAAAbGBj29vaNqLW/6//t7e0XExPn5+fv7+8faoXEw8OCgYGtrKzc3NxxcHCfnp7Q0NBSUFCTkpJ9fHxGRETLy8s8OjqnpqZvbm6bmpo4MS7C7/9bWlphYGBNS0ucrrbc9f+LiooqIBwvkbfc6vFSn8Dj7/S81+TM7Pw0PkMbc5OZw9cAd6iMvNLp/f8xRk8uTlsmXXIdcI6RvtRysMuswcqFnqpldHtTXGGx0eAWf6WTsb9SSEMnGxYAWnhth5RHUlgaPkxWZGqTpayCkJYuTVt9iY9mn7dPcH8sHRTCz9Y3iakYAAAAa5IoNDlJXmkIR11ZlK0PLzwAESIRGh9zlFhmAAAgAElEQVR4nO19CXvaSLa25Fi7AIGQbJADEogdbCDGG0mIO+3EsYM9WTq9zO25M3Nn+n7//xd8tUqlhc2x08ncnDxPDEJL1VvnvOec2sRx3+W7fJfv8l2+ywLx/uwCPKzYm59Wf5CCfD2ypMWZnwoMJPXOw5XmaxB38U+OHH5mUJBH8RMLyx+R2bBIX1iCxibVcAbsr9HCj8OPlVL4sVjiouKsoJbKBuX78uIEn3r4T9thfo0axCikDHsSfPSLvfhNm+yXAJ4ACOmrJONAN4JyutgoBgZzVjXCtK1y+LkR/OIXG/Gb11itGfjkg0I/2Ak7+yqEIlFwyYcS1n6vPAzOcXifvaRVdIPPk0BJfE2Lt7k7Yb50KI6FNj008rmvUZp7+O+A1qctwv8zXTFo83qxxVyQGRlBnTi3SPnTt4wI9wDxigwBOUX6cztHL+5+VskfTIZYTewyMYCqgbS5pvOk0eWuaTDN7wu6FRBLrkj1wLfEuNnYRcYtZfgyAW+ikUNO8ev02HtGFf0dFPH3nqZP0B+e59WB5LZ0QxBC/1KoWoIeMIBraaSeFUtQ42YzZtwSNzQIeHJgde0x9zWK3TM1qB4FC1u6XObVOrR7Hopqqjr8K0rYAvyWBb6blDOrGD58mYG9Tcin/SKDUU01sBZ6ZZ1e/ZUqidMQ9Br4OxQ16HJ7Fs/rzR/+ZvBRMa3xaNTQDAiQ4eJL/bbKlzERDSxeraFPucBxT8rV8DETw8Rue0+ll+cY+v6qRAGVN/vSUOfF/nT+FkIhtK8MgY+LIIr4oIjr7vctgddxrWsGL44RFlWJ3rhniaHfrmsCYdK2zuMPTrmcFpM4Kce+rGS6sJ6iKcL/j45EXHs9AQiLzdvfBs2aacBzLWgmDtAWoQuNoNAIPJNc1pTgKW6Z17CRDHVNIg8mahUV90+G5IdHb56Jy2q/ABNd1fFlSElcTeAFAfqWiqHTGlXKej94jgT4CatTXxUJpY50LR77w3s1k8e+lPzwaH51/cw4ShrIJnI0/aEyBrYm8r0MV+hrlCag/9GDGgNExDEyopbJW9haJqYZD2KA1I3ksS8iPzy6/fDx3ZEqfh4eSAzIOkJDtgtNSxepc64A/xOEJOCLIKAotWXwOrYs1xJSorRq8c9IAjMQjqMj/R7QCEVotEaayvOUL4FH1gOiUIA7V134CSAiqEhbOgG3sNIv9xPHHlp+mF591O4ZDoyJCLmFaAD0yEKbmg2AhzebEIi+yfMa0h0PuOxWvHCFtirufSkksJy9+SAeqQvhEERdp2DtU3n28uXLZ8+edXkBflsFjIEaPtMH5KJSC6hDRKqAdO0hUCNMuSVVELrxLkxfFY1c5MgDdy6dvbk2U9UD1XVfePbyp0/VZnPUBd/5lz9eXFw8hkL+4M8/dhEoALoFJKReHYIATAQePMj/qiAtMFseTKXBYYGHDqkA/ppx0uiVhZhTftAcOfPm2jKTzha2+zNS/VdXuUp9pO4LLy8ev3q8QF5dvNwX+FZ90m/wahouRx+vdUi3ag3rgD0EtqK2fBiYwLNNGJLYwD+ZMV+b6WvAKUXMxn1AQLzfVENMgCE8+/HHUAWupMpgfLT/jFGKV1ASqABQ9IYiSU9+/uX6bRIXAT1IHOLoxIcKo7Y6XGEEc0gMRKErAvuJmo0HVEjQI3zbfLCQze61tUgoCg3l2a8XbDXff8hVeo2j/YvnNzc32e00AT/cPH+OELrgj+SBlHsC5effPnVp1MY8oosr17SgwlQ7mQEugtoHSbMDiFgcRyP5ATzRjHRRVh/KG/utMsunhCcitvD8H38FvqH5bv8CV/40wOR0ATjP/0suN6UnVH7+AGCJKEt3ZwtwSqWrQoWZ9CaGig7rQwCED+xK6Ebq67VNqEETVnFqvTUHkDYUeWwxCgLhuPjx+lWAxc1N/vjycnsOysn//usNrnF2dkw+vD5NV5jt7PnfDEP2Akx2dnaurschKvovuwfzn8ca+a6SMojjDorQALfKbCknUEUA+7CGMqo+hNkUBqoZNJ3AE2O5aGE0UG2zU3zqoCw8385e4mOzGUYif7YIkvz0/GZfLRw+ejp9QzHZub368JESiyjoSWcvthUuU9Mg3bAaIOtIhfQRO1DWbT1At71TLasBHro+7P5ItKP63zdBa5/hc+2//wq/nSJMsq/P8ujHU45Acnwch4R7vn1z1OAeQYGw7GC53bn+qC5KIsWxwlVE5Id7zKhPG3dC6COGWn1rdP89S14/sBhBVBu/PRm8hHA8B2iMZrTts+f09KssVos8PkpUgUCSn8aUJXta+Mf29qvf5cNHROaz2yuCytV1NzU2FoY5dwhNSey6gQbk2sS49JEUFr5XHN07tXqjMm0rUe1e/wxUu/34FXEl/zzJ06r9Ri+Yo0P5kxn4m73kXqMzOQxJ/nyaj0Eyd+EPF/sBJE+3drfmt1RXfnmbcEEwCdKRAoljmSDiTUzaTaWOpCBQLQzLfemew1avTwEBBjP6BTuF90GF/uUHdvCMXvI3bCqXXBb9D0HLzjAk2WPuMqYlee4T+nv0hkLyaAtIiEqqquDvQtv1uUzBk6t8GBqYLSkgF9fQatL9OhunZgWAdK8RHm+mh1dhhR4P5rSK/0MvuiJHoLoASDgAWt7GkORPuBiTZC/tf6EPF/1DFhIkM6IqOx/a6cmUoOq6qmlmCJmgNgMM/IZhVO8XEbta1umDPn7AeIASHz4Pa3SzzxFDyFN2df6dpweOsxCSGfofqkd+xoWGhv7LvzhzH+MDR4GW7AaYMKqymGpZ0duuQjDwR5auD+4XkbpBQwD17dXtzpMnU1Jklg3+8DBX5EE8wjXaw/G7C26WR7Qx46Z5CMZZHigHhAS4HcIswIIAQtnsbDrlGkSpfpqGZBLKLlWV26u3q0ERqxXMpSW3oYkAn3vlEUkwKSCfACA7t0GJ5ywkF1WkJrC2nPtuH4Tx26fcCdQBeOg0D/Xj+JjDkIAWO8YAnp8BRE5ReT1yu/dv0iBhVOX26tNKULqjnpJzq20NBFFqP3efvsZrEIcmIA3ZmW3tBnr9miXIm79z0A9DsrD/2H7+HBMrd5mHxMmdvYBQzWYIkhdTqDHIZk4gNHnSgm/w/Z7/nCQTqioBKG9X9VeJqmmq8CRRbCr3GI9kJoRVQ0C2ntLyHkZ9xk91DnsUbkK1BxrRPJ8FsQh3CSE5Q/Z8CRUGkjHUnHPw9x/0cfi6m8WQQPsJQFnca8WIYI5k+R5jVsVUCSAfISDzLch3ISTRyPz574AyQNjBlS5O8+QXyB1nx3kQvNlBAMedQ6U4zUIVwST7nhYZB8DZZZCE/gcS7UpQ9PZAUlbM4NpASiMaBHY/IECwLIJk+58D7hJyazN/eXKeJajA6p/nkzfPI3LJoJMek34fl0DyJM3lpIFSHy8HRRcmknyPRtPTsM2I+vVOCMjW1qNFkLx6V8gABOz3wI2ccdPLfDaL2ZabJuh+inwPie2z7+Bnb/IH8cpvVkKytYVC/SdSs7tw/FDQ+aqiyPeX+jpjg5LIDuSQrdWQbL9EfcJ14ni5zBwYUP489fY4V0YuK4u4pl1+d0T7Ef4WPCLucuKcoijShE8DBaRg46akyPfYzzogtKp3f7lFpJoGSTwkv/k7bBIccOWRYz17vf1ivvAh0Otk88dzG3U10Z4VQEBrQIK9j5zLSUpViHkfQTfbrR4ApHJ/4ZnTMImKAJu53Yqq72JItv8LXFt5Qdp6G5kGd7IYkuNsfvs1inX9P5i7rAkJBOUJwESRlElbFQUooqirqjCqupKUkyv3OHjTIwme2gAGO4/bc1DeR+fxxA3V/jJwwbPlj7kENAwxy3A2tRkkx4drQgKo3lEAKDlJqreGjUZj2K9NBgAOgIfcuT8/w9kjyiKTJxESSUAyi0MCW9wGDoZ+P10WRZ9h9ZmDc/7yirlL9nR9SLYAK+fkHKAUKgpgVFmuePcZv1dMnaiIK9+mlSKEZCtuOBARPgNTGyz5/HTF084g+9Yu2Jtkz0NIFnucABJg5hW33gO6oeSAcsiy0nHut1+kioaKgIpUpVzCZrCyhm0YhST7b3C9v98C/uT08vz8/PVsNp8vJ7gpRGTyU/Q2s0frQwIr7w8NVTW7/UHF973SfffAl8ZkHACk1pWz9FKEkBxGe0+zO+AOs4uau7YVn0MlGvwRuct2fhpCsgoRCImLmQ+6XWXlEzcWBbteQW1JIC9Y0EQMJNHAJPsE3OJy++J3A0YDayjvHHJP7yfgiGFUF9zmcCNIvCL1vLquCdLKh24mVQuHq926Ajz6AiVhMuEYv2ZdDuX8j/fLdeBIzudnaz/5bHqZxq6rIeG4EclL2/Vma6gXG/c5LFFoYKNRRzmUOi5ke6bE+QQkEKTn+0bDgclu9vJkjQefzEAOGICbPQ/vv9LhbHGeRgM0WQJ+x20V729SWgcPeQt6U8J9cguLERb5cDsBCQLp5uVRcQIYZTpboSj29PVpxGoAlWxtAMkuN6R9SQLf68gwHFFq95TW9LCnAbyaw3nBIruJkEkkfs33QB3zKGnJX/TXWXfWOc2+yMc9OWM3Kx3OYSdQEl4we1zBV1yP8+7F69RweGbWlBwZM1tsxyEkUcvJ12Hakt0+PZ+uzyKF+WWeRSV7uQmV/LDPZjdmG7QmQOU+4ta9NqIRURwoQSflkhZiLId1w/kBhOT09XR6cnKW2SBcmp6GoGxkNwdNlWdFKKOFS87nW46HO3f1Btslt6QkYaEjaU52Ag0HBa152PLH//2hOlmvdCeXedphf7g+JLvzo3ingG5N7sNqcohGYDCihLfLLCkKYzmPWEjglDDWkkDivxSR+clJiSrT2SkeGmRC15V2s9tOjP0JgmrUPzueb6JoROTrkX7sZZAwkQlLsHkICWMD2VWp8MkLoE2vLoajlgu+TdEg1+H6kBx8UGOAiO12V1UtLbE0cjPBxKoO5WiXnL2sMEyxnwZqQfrPzmjnQP50JcmSEb/nv/6+D8NOYD2v2Vuv0JHZuxgiQxCYKHJv0GwXP0NTbBSfCepEig0QLtMS1nICNQmT3nPcfQhz/8x8uaLQUdDsxTsY3E23GURW2k185qMwlGAmnFOkEteZrJ9pRcVBvblhMLImJBE1IbzI9LGC1Cd/CZppepk/XlGAk8DMLv4OHBZrNiuU5OBjYsBPrTuO4/mdnKsAfJ078ayHpliZfSWXpMGl5WHVhAwFMwU4ebF9ApwIHLdYqL/2NI7JzU9/8dZXkoNrNY4I4BKiGbbj33HldAVOcBMFEIyklHx55MgU/RCN7t6w156fzbbzeMoEtygnPs+fI645C8P59ywiy5Xk4CrufwU0FSl8lu3cwXLgvHzEq6mALm8l1g+jEPYxe+1f8+EkAm6Sdncgx/n86ZTFJH++trs5uH0XR2Q40nVe/7yVnwMLJnmTReODi3OchJrAeO09Q0bOP0hsjhDBkLCWOUVGA6gVBHXnJxSTSJS2XEkSzgY0rSzlqoKujz8jKJloqH81tzA7Ww4JqyawK+nmL+GVfVJF+Nn9X1T/WdBLkIHTCJAfQpEvHMc5Q2lBlr3lUiXZnSGrEUUxdDp6MycruZaqju8cvaJVPVVpyfjgCn5jy/8IRFn/HNH2yf1rOyBc7/+hmRJnLwBvZBAQMCU8zqNx0WMS0WXRVK35ukwC4ngBDrr1W63RWCVThQXRLviy4g617h29b99EKpLGq1SWu+EoJsATP//dxBNP7SJGBOpFRrzBlX8BHjRHajM9hfqR3T7jInOz8q/XNRugI5BJW2SQot7qqnQZU8aXpaZo3CnrG6kiYJEV8y5WBAZRPc9uv9o/Auzkcty/0aAw6mbsP0cTTs6zcO7AKcSFm784gZMu8KSTMAFm+wSWms3BLVpJqTfheA2OzHp9URd4Da6gtjuy3C/eYSR4qKojObdqxHSVmkToZJ7fvvl1f/9IhLMCILWeg7tL75GyQG1AM9Ugrcyg0eS38YSbIB2KIrIkADjYwcwqjNFwje14FTmHhkCFMppCX1IUN7ZKa7VkxkZ3sEpFoByuwORRBBMUndyYMp4icQy0w/4JVBZNIoFzKsh8RqAxJ3gSRfY4Q0wnpiNL1PPgA/U14ZqSDEBFkQYNtYyR8GWvtlkHrN3WWmsOqq/o6NuNYLKFfOmrv2D3Ckf+qjd46h6G5Bjhg+czznBPQPbkPJsISJbOoLgOIzSLGaCwPaAq9QbZmaKQ86S0BeULEeGH7roTUVaZTgSTR09RGPtHBVYbRmneexStzfPB3GhoRTABOjmj2TJckpKfRRBZTCS78zY7l6QcGbRxJFmqt8lGSn6nUF3b8ZRGrrT+RJQV8VqUYh89gvaAAhQ4iRGFJ/kzG+XFrxGVwtwQ6sxxSCLg39aaiABijWZ6ZTdSWACKLxGLKVU4d80sx+54srSB415FJ1FMDs9BJP++AzsOsZIAWj0lk5KQcznGwUj+JPA1+dMoqkt05DreP8JbMcpwlE6mQ+KKju2t2fLehjMeN8RkCxgPnEMPylVDaoFZIz/F6yryZxwObMnKk2w2ZjQLETmYdWNdz2KbV8txyvDCOb9eKbMWJv7GLnszTKCi5NFotfMe9aKQpVonZBEO0ZYsQiqbP326HiK7Wx/exSZfNXKS5FbbfHwXinAQx3a4NaZV3CVhXsUnuzFMnp6+gMWsR4Z4yOIb4Gzwh+NjCMg0BsgiRBIqAnfzgF1oSqUzjM8FZ1ypw9kPs3J8ld/ZitXrcPpXUKzMMdt5Twc38iQSyQJA5nFAFnjfg61P7xLTW8Wa5DleR85lOks6nx8IEW5laB83nkeHj0A0b28zmBxHsAGZ3mVCQxYgsrv1C+toBLKgQBCwxXg5j/MX6/6qETbvzqNgGzpjBEsmc5wY70X6AWK1+WECkHSj2d3dEVmbEcZyC8+INmivhuN/jjJId18UumoEIYkJ7JY9PabT1sjctXz29Hyagke6igBAunS7HLLeoyFJvS5azRduwujYnH3nXhJ7qNfviMrZiug+RVEAKIePprPXl5enQC4vX8+m4EgKHumJHgsIr4+7SDtUxZflMQxirdB5ZmzoXu4kBY/r8EVhIi25vgByy5xbb05aSKrNnlvxkN1u6I5ZYIgsOiFNRXa3roRwQyWxVQE5DDAhtcfZFWUEPsV3KbzjPMZMp1NQxmXLUofVutzxPWdvb68Exz4kgEJrNBYtSzMMU1X1QFTT1CyjUXW9zA/LNWV3IShLJQWQ3YP5dWThuF5VQGI30QW005Gv1AAmRmQ9vX1nRnFkxcu1RBWIaRiaZgHRKApLtnUSdFUzhvU3uwfLYLkDKElAdne3dj4eRRcLiCO/5Ek5ty0iIDylZdLtjwJM7s6xHoxw6q2GiDAQNtm/SFSPjj7tzHeXobIZKAlAdnd3Z9dHyS3I0IZ7jgJMRodVLykTM9giicgmU1oSoEiwey7Xa7b6w3FX0E0TKY1J7QV8hgfStUZU37U/3G4dLMbl6bqoPE3c4mB39oE/SlvKaGAy7Si1Msr1ChLAxLrH5UcFgAqdeq4oOVl2US9mIDnZ7dWb1dpQSFtqKehHR2+vZruLYVkDlQQeuwdbt9c8s6+SIIrhw+nGnp5Sxdt42lLTFPRlldxYMiWvI8lUcnj+ucweQIj1WunLT0UAy6er2dZCatldAsvTuL0Ac5lffYruyia0a61+N+DYYHdbZYJ3DoaYJHcM+3yxC47jeZ4PxWPF9zsViFhO6jFEJ4gsQIBa9Le/ACNaqC4Al6cxMFK0Y3e+A9Qjro86XEUiNWlHmumSIhekKu47ywBMrC++q15mz+sowcxSXR33+90ov0Bt6V4DdQENvXJOZkI1ABq3v7zdT93CUOwrqEmqWFGEYFdpWyKbUUNMzIfZyGe5OHR5TrcqQ+pJTBCDM/qP3rWvr27nsMnXgAZgcQAXzH94u//uKGULDixwW2nbUxTgeZHlBFxqV8iQXKbS1P6M3W4HeAedbhMthpJzLUZr1HBbKwHqy1H37Yer29kc2NIBRici4NjBwdZ8tgM3Cjs6SttCjYkKVJz1e7ncEBqPGFbe9oluAD0pfvm3fxSgkojiRAJuSPH2Mpk6WZ8CA2C31xxFluoCYEDsAqT99vr6w9XV1c7OLRC409PVhw/Xnz524Y8Qi9R4SOQbw0ZXxSwrCKTeFaUPn8kkNTbtS8tUJncZ2/s8qem8YPZluHwQlwNBIuotGa2TUiR3nKb50IPCCEfFCJE4ZwESASJ9NM7rTvDUZINyp4cCeCb3DUPVjDTRvjCdSBawmbqkyBJtGLjaQx3K4JCc6/gdRVYad9gAOISBAakr4VBAkZpwu70QAwdhYqUl8Rmp+mXppKQJag3WPiiNDeelADMCVoRbp9CRk4y7tgi1YUBHUEmcQqEE+w/lBuAPK8jYSxATMfU9FRmp9UU3QW6rQEVy7FiYawoiPMS0mDdImUqXDgA7SwaJ3qzINZXuMB6sRAOOZqQHISuQPfg9VU2AU36wXQZTpF9sQX1gBwaAR3QlOToxpUNWWuuUasVuqDh6EIOJIK5p1WjsRU8ANkncrNhn3+agDEWe2fG5AL6L6SZiV9acqn8PMilKIG+OMHql3JUTS/ld7KfbE7eBKio2lDqtuDBw+8RHtVA8Kk3gT8JwiM8wXTh7aISPsTVz5K5gMAsYS8A+F+R5hc7nz5tfT+piyYnNI+fGbYBIXH+hSggmUCgFmZDQzSnUltSelJNqKK7oV/AsGfyb2msh3YJ9QjZ2s3gj20CcuhlRC8dN9KRR2fPk9B/uWdw+V3JjU7ckw8klph1U4O7o7R700xVcW0XpYUjMpiR3OsoYTi4bKDkQ13AZTxohd1JpIkzQ/BjsZo0o1l5Nt9hneXVVW7DEs+R8iehE7nF2YvRdL3WSEzGAkqgjBftpUEu9JsmZJjILvY+m9th11GsaaL0MsRAdYF0CTV4caDt4v/BQOoIaiU29ibHovTfOXsp+/PcsFZ+z5fhjmr6dfBFCz+TNKvVBJiJMh0OkIrQJ7RSAmqhuuFME/FVzbJxl4+RlL9cQxfiod1WNQtCpxSZQhFJ6cDbxSsDC409xZC7Zub9nCfpAypE1gSavwg2qbAsTCV0Y54LjjLlDszJlEI5D9SGEsQfoU4s90dFjfrfSWPjagXvciSJVQMBsJ60zx6XM2Rip3dArZwyhDcwG0QtwMfAjFl1QGRqAq3tVGGBVmuHG+05PN+IBxkSLhmG2nPZ6BiwPriYpY0Ve2oblbrnBeOWCpg5y4Lwq3IG1zcw0buoqU13boF2HnZYadCt7TS0enzpWrC+xNCg+tDoskkwyl7LtlNdUOsWaz4SynjWWYCwB0zu1x8xG9yyVjSm6AoAENWsFRmR0N8VaMb4zzSj+rhuv9gCdi3eXQlI39arNhi6d8gCu7YGGATIWmTm/G9k0H/Crjl6+wGVkENK45HClGzcLqRw/0ul+TS8pTGpOrcnlZEaT3S5SEuiChei8yWakm7Qv8uqAbLPfVINOxIwbZ88M89o6IvJX9NqopI706lwnxwI1GSAcQCAKHE+EK/0iu7tICwQhdPdrZygGfqWEFoOyUivHSa0wue8tOe5RfBeEnRGg+h6sOLAboSHJEaXKsK/ag/SrB2YlmXrgV/y4CijlRKzubTLP98tKqcIVYg0m+7C9mzAQjWdCQ3YCFYCkG15a09Xgsxu7414xCUDFvVuBH1wyHpeJZaYlG1VIEEBIEtfuARthVHVhGJ7gqVrg3e14f1CXTzzZdh8+er+rJLkfHvE1AQT1cXfaYV62B7hErDFwtoyws8iL3bSaIBO4SdbmZf0ykiwrenN2VVdTdp21WQPoi3qTCfsA+YRfYuGgXE7Z9cn7StUkJYJGh1SxEQlJiFSZQ0PRjGTZbERWiPp6L20rn8yf/2LCTaRimL20aek9Jn5pC91I92WlzPQCRCP2TGJWePKcr11Gaj/BrVA6TMsK4ijqvU3G+cYUrD1MS+j+jLHgu0qhLMqJjhYozOYztqlXo6hVywvr2G984fep3bv0rGr6jt6M/ZcstRdl0c7i9902G98WcSSl3Y7FrYGE9u9rXSVaz0x54XC3O/ya8rw7iFdM7vxBJARK0vq5GGzDhS9grPS/cUha/c6iJakhS9a1ZiK4bS/qFfPvOqH7K5FM0VtjLWVVS6wvrFgLSdT/tiGRJ94aqfuwocRxc4oLK+592x5nbCeSmxQxJknjWvx+228bEa9XWiMjKxXdpMuNj2v9p0iTW+fVPP44ZauixpefdPYlxJbWWojaG6RkhbWFAzTftHQ4f50BppqfYl3V/0xISimdSilSi3cTQWmuNhzb87+lbA/LWtlIQemk1GzgLr2o12rollb89lRprW6Mjp2W4vWWryTBL/NWP3NHyq9VvEyaeXWWEnMGT+FJjKP/p0jqysTlvmoPbwivfev9BIskvS95KTP7ZHPrLzRN74tLuttY6kykYK7fdyGCpwMmZm79X5YqfjH7t+eDH07wWwnMB3i3yTcreNK58W13Jt2r2GUEifVtjWg9qHjEB//Z5fiKBM2n5hestLh32ctVh12dH1bjOYZdGfQbXZFv1JpK5A1nGana4MVxK8ce9Jujrtgd1RPhZaZTrw27ojDuN2X2Nnan3tfpO9abQ1Df5NKATnPUFoXhxCPzz4P5GJ7batM3h47Escte5PVaw64gtkcT906Js9e3TLgQUxB1rcFW0asZBnxBIC8IompqZiPoZa6bhg7fG6gb4ezeTttS0V3UcjVyf6dqBrfRTc2gpZ+0NXDcQDfwhvBiQbRi2yoMdAPfVCfvpCdJn10TNVPX0RxZXzDBpWG/rT3gNbSaEj5PNbT2plNC7VqZWZfHDMsW+uXYqzU18tRC2wyOCXTVO3mPG74Lo22ZVvw2BkllTexUIST1oAxlNqmTjcRrYEnS5+CXcMCpjmGu4okAAAfmSURBVDJ+sEY9UU+LXaQvHDFLF09nC8xYasdIvGuUJFw2Lyaf1zKYE8uhrnliYoUb2WGCw6/6gXs8VcO3/rCL91pW/NKg5g66AkLSKZNn4mvsoRG/ZMPgzrfoO7YNaCRhG8n05X2aVbaIUqi4pmh5FS8ammboIhl6kVHpBVODtsBMeu8Q3UG3IYW1SMpXpnVssrUIZ72O6GNREUjLGxkWkga3R64VcdOUBNyQugGuIe9CNjeaEOqQEpvdesXv9IbBdLEcLq+uQ67MVHDCNSYool9GvuNUqnTjO9S5I/A5x/HrwxARH99GNJtoAhtWGBH/VsI6YGWUMgJYjALG4RVd4Be4vYCtdCPbDuBXjgGVGhFdxkZt46WkgtaCrFpqRE1qLSEbKljxPk8PV8Xs4zbBaTmZ+t9Ca/Ci+ShaVZEMLEu4nfQGDq+CpmVqxeuwG8QAANcwJrQ7xMU/i20CkWISENgSVVH7wOXYGKoxeaUhMU28nnLxtJUUIS9lshKahe+l06QTr2UkNol+i+WjaPkib8VvgxdUBwRVIfVgvwmNkchbvQAwCske/iYEI+fEBzdZgNQe0ANBG9UEPDVlgrXZJCjieJcu0l9LSlgX1MTcuAmCINQEnINim8zgi4xIHxBu4fhgnYsrHWzhhLcqoH2nZOmfIPIaug4vaaJt2sIGES7sI0mfy14sADgFAeom0k+i28HGBFiV0ldbLxBc0ySK1MqDbr82Y5MEEqHLYkKU3ooM82YwGYQbfeG3MNK+0wn1aGSfGqIlOGB3Eq1FOl47kYuFSNvg+4c7RmHc9EVv1EiRDC5DciAWPy9El0KEGYHuC8h2C9PqWezje1iNg2USGewcKNvRNxAKZL5rx2CsjJi0EdCAFzEruEyDPJFd74NPCTAaperuMpFIEROpZRgwYHFJc+NvVdq6TJDq0wjCHIfRPOZuM1ASXOeA7ehacoMwGWlTfFO8fQWzRRhZdGxE7s3QXVCw8AixRGODPbWwuQqJpcgYKsaeMEvSE4lOQ/zbpegpsJWDZby0XYOGJvRAamWT8CzQItJp5jLXMopIfDChtwyNZNhFxFHTonniRj4YM0TS1Fqx/IpgEDSZG2AiBm63ZARBdJnQJ27X0PxIfwf1P/RlplRJuDHesBQRWC9uNz5xyUQFCO9EHB/pwA/dHo5K+PiS0iVCmik5eEYUPqBKYinhEuZ6gImgUqvzjCDKJxPeMVcwV9FtB/BXiezbQAI3SsY4UiMKHAY/5P241AcTG+Q1ZuCHNEGQkhAUN+nRJ82UCHcLVlTfHMITISlwkkXrH6ZUpXaQzODGjY3N2TQ8r7M1CH0KKQ5GiGzlEGgYqV5QBmITArMSgTBuqPSEvjfpYKEjRXFIyHGNzoUiDRRka6j+Y1r/cjhlahJwrMsFbiowLcrKtFY0WKW/S2wPEWHXwHbpvh+0DE09iicUTNeB0ksERT3aU7EWJPFem4rJNDXIdmiWGh14pMkr64olkmch24h5TZ8aG63VOMKXwa5cuAJGtDZNM1aGfgxPKOWwOTiY7RAUN8mDCSQ6gzRaD06JGrOEFyToVpSmBvg0k43OSPcoykr9SBRSCHcVJLUiGU6g57iWpJHJ68AJeUoBd1HubJPXJjHPJiEkjUKC9y5vMshBOCIMpbgmem1IxHc5AGwSmsVpikTYkXF8srFLK4QE/17oijQMIQ6APD1UMkLq+DvZ2g5TRcUKto0mGBAfHNnZlEBCWrgfEtsGW3hQ304D7k7bRM8ghoMUTgK+VSBNgsOSSmA+mAzgErNwTZlkBk1NE10EjwgQabPVjMdtNK4iSkUiMQQYfG2c3mDLEHgGl61PObx/aQh3h2lHtHItobqlNT3H77UBESDjDQKGQa+hwd2NMEa4j2avWB7hZSU4p0N7zgzLXTyh2yPZODxhjzqqiTuCHKNFOl1o3haoKHmqhSGilG42mzzauEKJBDmVtCCMwKiP5BZ0iJpMeks2GfdxKWnpsC8MXo9We9Owksc7PZX9DtNbAjJ60bTExlDHF5d91D6CqhnjYRfTq8rG5HRvqLKCwyvqE6uxeFCKBFp1qvdo4hHIpckQeZ/FM9jsFEuNuDRRhR/MFkeC5Y166M0g4sSi4kYImAk2Y7lCyAUTISk5rS5etUlUluwNJhLSaUXe7dOjaR2pFW7CUPXdSH+EV2auFSyP+qMWe+tYxCFHuitrNKvdbCiswj4YgE5KSz06aiSfahPmrUhZeQ0XMbLZqUpfmueHp4qwG7ASgYRQSaD6vWjsOQrx1EWPqg2FBDvwWD9PJmxhAe6kTNhpw9FBORyvEMywxYZEbfVyC2odhsTEBQjHJoCxuBTaoALgksBX00570RpBciF9ahgSZEWiEbYzqTONV/doV6xerqEyRCApo91U44sQZNIGogFfY08gERJdfSvE6VsG2nvdGvfCsCMzKoNjmkbe9SCVTfClTaJcaWzBnbZNix8EVurULLhlu6kZkddDtMomvHUfu0GvaBqa1sWBh1QE/NVg0qt6Gf3qBrdsa6hctaAMhqGJLrmTZgj9emJuVw88TzWsBolELBPccpPglYjdces9uROjZc+th6tl7IFb8RiSciq9uluJ+jZ0GyWehoPbuOFcafY2jh9b+ezV5chDgOH1QBnoxYWBK/k0d9jzFrw7uSDXe5Ugw3B7kv+VLq/+Lt/lu/wnyf8HeWg68cpAU3IAAAAASUVORK5CYII=;" parent="1" vertex="1">
          <mxGeometry x="170" y="2970" width="274" height="184" as="geometry" />
        </mxCell>
        <mxCell id="JBZXjR4z_USi4EaJgnGG-11" value="" style="edgeStyle=orthogonalEdgeStyle;rounded=0;sketch=1;hachureGap=4;jiggle=2;curveFitting=1;orthogonalLoop=1;jettySize=auto;html=1;fontFamily=Architects Daughter;fontSource=https%3A%2F%2Ffonts.googleapis.com%2Fcss%3Ffamily%3DArchitects%2BDaughter;fontSize=16;entryX=0;entryY=0.5;entryDx=0;entryDy=0;exitX=0.5;exitY=0;exitDx=0;exitDy=0;" parent="1" source="JBZXjR4z_USi4EaJgnGG-5" target="kVqAeBF7xhMF057fxwR8-6" edge="1">
          <mxGeometry relative="1" as="geometry">
            <mxPoint x="305" y="2890" as="targetPoint" />
          </mxGeometry>
        </mxCell>
        <mxCell id="JBZXjR4z_USi4EaJgnGG-5" value="&lt;p style=&quot;line-height: 140%; font-size: 30px;&quot;&gt;&lt;br&gt;&lt;/p&gt;" style="rounded=1;whiteSpace=wrap;html=1;shadow=0;glass=0;sketch=1;fillWeight=2;hachureGap=12;hachureAngle=-41;jiggle=1;curveFitting=1;simplification=0;strokeColor=none;strokeWidth=2;fontFamily=Architects Daughter;fontSource=https%3A%2F%2Ffonts.googleapis.com%2Fcss%3Ffamily%3DArchitects%2BDaughter;fontSize=30;fontColor=#666666;fillColor=#95D2F5;" parent="1" vertex="1">
          <mxGeometry x="170" y="2970" width="270" height="190" as="geometry" />
        </mxCell>
        <mxCell id="JBZXjR4z_USi4EaJgnGG-14" value="1. 遍历token环，获取指定token range内的明细数据" style="text;html=1;strokeColor=none;fillColor=none;align=center;verticalAlign=middle;whiteSpace=wrap;rounded=0;sketch=1;fontSize=30;fontColor=#FF66FF;" parent="1" vertex="1">
          <mxGeometry x="100" y="2780" width="365" height="130" as="geometry" />
        </mxCell>
        <mxCell id="JBZXjR4z_USi4EaJgnGG-17" value="发起明细类&lt;br&gt;历史数据迁移任务" style="text;html=1;strokeColor=none;fillColor=none;align=center;verticalAlign=middle;whiteSpace=wrap;rounded=0;sketch=1;fontSize=30;fontColor=#FF66FF;" parent="1" vertex="1">
          <mxGeometry x="610" y="2440" width="250" height="55" as="geometry" />
        </mxCell>
        <mxCell id="JBZXjR4z_USi4EaJgnGG-18" value="研发" style="text;html=1;strokeColor=none;fillColor=none;align=center;verticalAlign=middle;whiteSpace=wrap;rounded=0;sketch=1;fontSize=30;fontColor=#FF66FF;" parent="1" vertex="1">
          <mxGeometry x="634.9999999999998" y="2274.75" width="210.47" height="55" as="geometry" />
        </mxCell>
        <mxCell id="JBZXjR4z_USi4EaJgnGG-19" value="" style="edgeStyle=orthogonalEdgeStyle;rounded=0;sketch=1;hachureGap=4;jiggle=2;curveFitting=1;orthogonalLoop=1;jettySize=auto;html=1;fontFamily=Architects Daughter;fontSource=https%3A%2F%2Ffonts.googleapis.com%2Fcss%3Ffamily%3DArchitects%2BDaughter;fontSize=16;exitX=0.188;exitY=1;exitDx=0;exitDy=0;exitPerimeter=0;" parent="1" source="kVqAeBF7xhMF057fxwR8-6" target="kVqAeBF7xhMF057fxwR8-6" edge="1">
          <mxGeometry relative="1" as="geometry">
            <mxPoint x="550" y="3050" as="sourcePoint" />
            <mxPoint x="867.51" y="2830" as="targetPoint" />
            <Array as="points">
              <mxPoint x="620" y="2800" />
              <mxPoint x="620" y="2890" />
              <mxPoint x="860" y="2890" />
            </Array>
          </mxGeometry>
        </mxCell>
        <mxCell id="JBZXjR4z_USi4EaJgnGG-20" value="2. 将获取到的旧格式明细数据转换成新格式明细数据" style="text;html=1;strokeColor=none;fillColor=none;align=center;verticalAlign=middle;whiteSpace=wrap;rounded=0;sketch=1;fontSize=30;fontColor=#FF66FF;" parent="1" vertex="1">
          <mxGeometry x="552.51" y="2793" width="365" height="130" as="geometry" />
        </mxCell>
        <mxCell id="JBZXjR4z_USi4EaJgnGG-21" value="3. 新明细数据&lt;br&gt;存储到tdsql上" style="text;html=1;strokeColor=none;fillColor=none;align=center;verticalAlign=middle;whiteSpace=wrap;rounded=0;sketch=1;fontSize=30;fontColor=#FF66FF;" parent="1" vertex="1">
          <mxGeometry x="980.38" y="2770" width="365" height="130" as="geometry" />
        </mxCell>
        <mxCell id="JBZXjR4z_USi4EaJgnGG-22" value="" style="shape=image;verticalLabelPosition=bottom;labelBackgroundColor=default;verticalAlign=top;aspect=fixed;imageAspect=0;image=data:image/png,iVBORw0KGgoAAAANSUhEUgAAAOEAAADhCAMAAAAJbSJIAAAAflBMVEX///8AAAAwMDAODg74+Pjv7+/f39/y8vLZ2dnOzs7Kysp7e3vq6urBwcFfX194eHiqqqqfn5+UlJSKioqwsLBpaWnj4+MgICCEhIQ/Pz8UFBS5ubk6OjpycnKQkJCkpKRGRkYqKipRUVFlZWVXV1cbGxskJCRCQkI1NTUtLS3r3xNZAAAHJ0lEQVR4nO2da5uaOhCArXILEK4hopGbuFv3///BA9o9tV1hCYSM5znzfqm2T5O8BjEZmGGzQRAEQRAEWYbtc4cQl4ooTtI0z70wLMLQy/M0TeJIUJcQh/s29DCl4a6I0uJyaPa7H1PY7ZvDpUgjRh0DeuxjGLbDYq+e5DRG7SURMV9L1bdEmh0Wq/3JIcsjx4dW6+TcODhMOxZncQpil4PZWSw7ruf2wDGLHO12PMq0yP2mjfXNpUHyk2a9OyfP1XECcr09iN6dfeGuq+cngHaflOsdriSAlvtFsM5EiuU/5uqohXI/AnNyGeZKlPqZun8bptAqXPEwaJkBmCpBD9pkkFCJn/1q38BHrgr2libkD/z3vJlLBY2tkoHsjh0P7/u3arYk26ULubk/8m/nMIkZJZZpG4/Y9l/vTYtQFifh+W1mT8EywUq2v+acM2rN+1wNi7L83MjObbVE0JToaBvkVMmm3HRoHnxI9Lzkq5hO7CMoha92Y2P4NJn6DUkX9DOl/XbFDbgVtVOGML8D+k3LbxcN4QUrCr47CdHZjY8epIfc1RXKtUk6Gsqbf5ieB9s8aYya3OHx8O7tPLvV64BetXghMQsz+vl8QNfZTT5dzyjemMlBnn7o29ntPV+xveWWwjHLYOXPVwOqDfvjNNJ/XcEYOkZXMeyotZ5r/JHzzFqGHdeQ6bDkwvtmIKsZ9pyCmKz3s2iSqh04oWszvHEMYqp6Ni0Rt1M3VOsb3nlv00504bVNw/TdqGzfpXrWZfgpWrdhGbmOxaevC2zfcjqxsK3l1GAMf/PWXH+eM6+MmbjflOB02pxb3Z+32xcEi8s8u9Sn7dz9PbShNtAQDV8fNETD1wcN0fCR3eAuVBunr/t8lYbHDa8g71g4V3zz9VYzpXN4+3uaQhy/1/R+k8m6c7j7/CdOPZ0HbO393oBqMuzx3XI4ZqyOoHT/uKSl0fAGZ16zmtwpfRIJ0m14wxHpZUI8ZTrHU5DQgbAsiOEN36FJcZ61SX/gGhSd21h4AM7wjmH6NEryQHJK93VWxoyY9vdhHmjDR1nfcQVjUZLmYZFlQRBkWVF0r9qsI/TSpIqYoMSSC0e+kOFKoKEMaAgDGsqAhjCgoQxoCAMayoCGMKChDGgIAxrKgIYwoKEMaAgDGsqAhjCgoQxoCAMayoCGMKChDGgIAxrKgIYwoKEMaAgDGsqAhjCgoQxP7uZWONK5fB2UUsMQusCv8aS2mtqMkqOyMnCzEM/K3qrOmXmPoApwG+L5fbnqs4J2hZZisH/hpEN3WK+S97RvhdaZJOnIbdWrZXY1qdBSqObbalGr5q59FAlRXObrAYPTckItrPWz87YXjxHFZSM4Yd6lmdj/7F7k8reO2yBhQ2kg07FclgRbqVro2jMs389eUgnC+xKJU7rpqyf6RFRJHjSzOgTMId2fzlkR5mUcCdfpsXpurwhlVVLmYdGeT0sLiGKWLBq+PmiIhq8PGqLh66M01qb6oUfyrF41wqogn+MRxJaOqhG2OxhPWJNteS/rqykibNO80WD1SZPTf4MmGmPe3C1n14qfzvsFtmqEaUUKniY3xCVn/EvAC+K6hWGx5KJYLkiGyrzDXZkxiEjaQ7NM7PhRFxUdrYMOfu3Jdwgru537VSbU8n64ZF4syGhBjFcx/MSwfZ8T0ccqbg/o9Iqi6B/Q2b8KPc/L07RM4v7Blb5vykSXX8ZwNdBQBjSEAQ1lQEMY0FAGNIQBDWVAQxjQUAY0hAENZUBDGNBQBjSEAQ1lQEMY0FAGNIQBDWVAQxjQUAY0hAENZUBDGNBQBjSEAQ1lQEMY0FCG/6PhjxCq2sAndvh1UGozSnYxpKMRq60aMZDkny/OZp6JlT8f0HV2i4PPbzzF/vf/WzF+dRoaznl2o+lQk32rpaOvNobhJIOfdkc6u2E60mpHE0Sjt5wrwmJtMz4QOr/x8YZvXOIV65wYJJ6S5bCgh7HD9IH3IqG+2iIgtk+TYmJ21fyDdLMxp3VxY1dn5bR0glEMi4gyk8o2WtRlJdHRL9GPOksYJVzu2DU4oSzJ6g+pghg3qiWCm82iZMOmDsJbToWgLnE4575v230aBucOcalgUZyUYVA3SzoJlgluDKUPwV2B7eLznAmRTDmdvYITnD24lHgBTmoWyU9qwL0IoRK/DgZtMoDC4nhmBi3zhFbt6p+82rfxSpT69dD10n3lqRcstkcgkLUGHgncVfx6/ARarqNceffteksrcy1hX6w3fb8xSA5T/+PgaSy5yaNCs14WKy5bOAGLZfJbnTkcCy3Rkuf4bhwcvgahlXEKYlf/3H3VtERZqP5qHrKUOfpjlmMYtiNir146obvaixkxoUtOj8NdEaXF5fCxn6a7238cLkUaCaoxBKsI2+cOIYSKPlzRl44IwyLsS0fcCkb0sQ3icB/6Yg+CIAiCIP99/gHFN5OJW6JEwQAAAABJRU5ErkJggg==;" parent="1" vertex="1">
          <mxGeometry x="1067.88" y="2947.5" width="190" height="190" as="geometry" />
        </mxCell>
        <mxCell id="JBZXjR4z_USi4EaJgnGG-23" value="&lt;p style=&quot;line-height: 140%; font-size: 30px;&quot;&gt;&lt;br&gt;&lt;/p&gt;" style="rounded=1;whiteSpace=wrap;html=1;shadow=0;glass=0;sketch=1;fillWeight=2;hachureGap=12;hachureAngle=-41;jiggle=1;curveFitting=1;simplification=0;strokeColor=none;strokeWidth=2;fontFamily=Architects Daughter;fontSource=https%3A%2F%2Ffonts.googleapis.com%2Fcss%3Ffamily%3DArchitects%2BDaughter;fontSize=30;fontColor=#666666;fillColor=#95D2F5;" parent="1" vertex="1">
          <mxGeometry x="1067.88" y="2940" width="185" height="220" as="geometry" />
        </mxCell>
        <mxCell id="JBZXjR4z_USi4EaJgnGG-24" value="明细存储库" style="text;html=1;strokeColor=none;fillColor=none;align=center;verticalAlign=middle;whiteSpace=wrap;rounded=0;sketch=1;fontSize=30;fontColor=#FF66FF;" parent="1" vertex="1">
          <mxGeometry x="1067.88" y="3120" width="195" height="80" as="geometry" />
        </mxCell>
        <mxCell id="aqL1iTVGjlDUT3vSjXHd-1" value="" style="endArrow=none;html=1;strokeWidth=2;rounded=0;hachureGap=4;fontFamily=Architects Daughter;fontSource=https%3A%2F%2Ffonts.googleapis.com%2Fcss%3Ffamily%3DArchitects%2BDaughter;fontSize=16;strokeColor=#666666;" edge="1" parent="1">
          <mxGeometry width="50" height="50" relative="1" as="geometry">
            <mxPoint x="1380" y="3410" as="sourcePoint" />
            <mxPoint x="1370" y="2040" as="targetPoint" />
          </mxGeometry>
        </mxCell>
        <mxCell id="aqL1iTVGjlDUT3vSjXHd-2" value="" style="shape=image;verticalLabelPosition=bottom;labelBackgroundColor=default;verticalAlign=top;aspect=fixed;imageAspect=0;image=data:image/png,iVBORw0KGgoAAAANSUhEUgAAAOAAAADhCAMAAADmr0l2AAAAq1BMVEX29vYnJjbw8PDy8vInJjf////4+Pju7u75+fklJDT8/PwjIjMAAB4AAB8AABwhIDEYFys6OUcAABgbGS0AABURDyYdHC4UEygKByIaGCw0M0EsKzsgHy/X19mAgIZmZW/i4uSTkpnLy86npqw9PElhYWtSUVxFRFCwsLRxcXmDhIqcnKINCyIGACLDw8eMjJJWVmCsrK8xLkC8u753dn8UEixKSlTZ2twzMz2m9OJvAAAVcklEQVR4nNVdB3viuhJ1k2TLgAHHJSaEFloIJLmkvP//y54KJLEkgw0u7Nm7u9/mJljjGU2zPEfTKga0MbaN4X72+jj/emL4mj++bvZTZANsw6qvXy2IcGg3GSX9bRD5oee6rkV+uV7oR/G2/99oskP4HxUSUungdLOI4yh0dUvXLfL7B+wfThjFwWIy1YDd9HKLA2I8fU5akaefgddtJ89TcjOaXnEh2ABtklaXae48XH+bbMb/kBoxGK77kZtHth8Zo/56CHDTK88FG+8WnTCX6lLw+4sdvn0tQjB9a53deDIsAq/zNgU3vhfBeN0Pi4t3hNcZjUHTMpyAbU+CC4zzL/yXiX2jdgo1MO0FV0nHECQ3aqe2/Xp3weaT4d293qIS8feyBPVxfC6/by5igH1Qivo4ws/9bfkaCJ5bTnnykTS19XpLOoRwFJ9ZsRt2oyBudTqtdpuUFvc+uR8n/W08up2NaKNl99RavW4cDOa0BBx+EwynpDicDz633ZNGHS3RjUhooyTMUAf5YhgEX5PdGABMKz8Cm5bAGAC02yy6cZitxzAZ34SZ2mM9UxNu9DlfjdWFO5EToP2o++JliRjq4xvQ4Qn5wtZyhsDJSo/IuPrKTO68G5CQ26dSvP58is/XsbQyHt1l2PhDghpOaqD2pJbP68yHpITNszxog+EoowIJe2blMpwEniv9pxMvp6BAM4mI+BUrK+T7t0Z7UuDxRXnfo03R0tXG776v+qzgo8GcBqxaqq2zfbugqIN4PG8rBLRas8YktId91T3vFFYfB8Szjqu4X/1hU64UJgrP4L1cXs6BoRdakojuoNRVF1jORyTLd/+Erkg/sPH1KX9md92IkeJ9S17L55t2lT3Z2jqQrbSzbyBng8ZA9uvBiCSb130sXst1s+s1EO/Bo2ygn+vr7zQEH7HkmrskVtQsosqDlhOUIR59Slban9btScGX5EHDZTlJB8RvUsj3nmrutOH9Vtoog7IKVGj2pLsXr2r1M9CWluC8DPPl1jlgf987gpXWHAzxSurBbN9LDFaKEBTMalQhhIkYIvxRqcFYSiIsosL6dqEt7UAnNMu9PBSirFXnLoRYcqHtsnMNPBXDkLusTUB72hFcQDgv24tDsBZjRWtXVyzEH8K1rfa49P0Bx2JSGpaQJ+W7tCEmad3n8tN9iCdCUmp1yr+NSuB34cpOF5UWAn8BDV1w1XVFCvAmuJjuayX1Gt4IN9Jd1lIXQnQnWOhnNaYDkdiRvKvFRiUL9asquMHzffpKUS02CtbCjd1Oi1URuVu59rfQZvPearBRqAnyuUn+GAjJL4P8ygmpJotqqOztqZCmRZtcdkNkg6ZBZDOhkdfl4pmwG+IaYj3eCFGwn2fnE8UZhmlCiDTTzG2kkj/rTqrfhGCUNlG3d3ZfUMUZRCqT/oE0BI28hgYWKRu1HqrfhFKl1D11WoAKAqlZEqE0AxIdmlTE3AIK5mLpTu4fvRRSihjvsgU02J4jmjMNqjWTqBCRr5q5vYw9bacF3FYeCe2dUMu3lI6Nfs0gW434EyobZDZKTdWkWzH31aAmbPi48hYwnqV7656qSoMmMkxE1Eb0pTEBqQpNGiFMWChrxUJaWL2XwUJ24QuP7yDVkUHFgVRdVFimNao4QyuckouXCyt/TCE60VT2BI/7i/gU6laoMZoGYl+HxaXTaHcrHQmrz2WEboUV74+hl2jIpH9Ag5smiXrUOhH5ImK77hL3YE/TW95Jivw0pPZTDNAcpM6kWe0hTVFYCGA6Y86EuE/qLllooNG94EX+XA6OO2kB3fxxgq+q6BUNodkVI2p/JHozuSDTH/2P37rc8eDE9dKH/OLc2ahB9kaBiHS8IBJMRkcs0EH2F03CaChgIa+c5xSakFfkaFvA391CjargBVH/j3CDJOkxwejHsA1naMahWignIEP8lRawfeaBPWTC0WyQxiStuIDjQ0/dsvSk10v0p+NHmezzYIFUOhfE/sgJAfktpaUKNU5o0g1YuB1tD1nulCQO/+uBCQipUzGJwzSu3nQihHT7RMFksowQ0vTQPNxxZlLFwATsDXSiO4JB72FhQ4Tg8UPLTxTBPKeAfPcb3HeS33xVxeSjEeC7RcSiovUcYqU9/YlKZRboQxSEqMGt9KjXYA6N7ROWPkHzEJyoW895FZY/mtT1m8TJJMkgcZiJOr3BE6zALv/gxB7kq0J0VSbthLCoQG80kazYqkySO2smi99w3HcSJ0n0ZMBsdDAomD0XBVxmeVGTJoEsHhjMtVHnycMeky1fegF5LmnSsI0QkRGi0GGbMOkxX+qEFVegQuak99HBnBBVG1kPokGKVZsaoiZaZDn0R1nFikg2ycpxsncT1yLxoZdwFertavtcEAnHNQN0yAa5kGzrcfUZhxXnBdWcRj+NuFqTla2sONeeXGvw3+9tlTd9qZBy0QFiLR5arpgsuWApIvUpBtt2eW83/0GWXfI8zGR9FUPDi4f0Ha22xBYbCMlC4xWLyctntqqf5KKIMfHAdti/NAHiTTHDFurBiktsoTM6SOaY7hTqWA4WZXADLQwmIDSRyS2A7l7ErjhJtywqLrGB8Kx18Ih/VkWTJ9Y6uOiT6T05xAYq6I95CyW25Qwq3YN4KTTv323WvWImxVR3sY+jmZ3JsnIT/fmcQzL6i36lrzagtI/Rox0Pf6xFd11qSEMDMpBY+kAkPNIKqjzdgcUm5csY0ZWVUZCxuKmwbyCkFpUeDRCbau7/aNAqI++Fmemz+FTSiSoUEAzSZ9bCdWn7IVP/ttDIqzLUw2EndTbWquMRLxwL28J/rCxQgFchUTvXsCgDEAhtIOe+qnIC2sJBEset4z0fLN7WyvyovRMeJovPCSq6rPgM2/uqSEAwT+e9NTxbYsAvwiGydjVuxh4Ku93ql3xmMwP4UYj14bwSyxHz0OoO5Aiwp0L+VI0K7W/pMnWdp8Q94ZSc91bB3gAjQYGOe+VbNbkhnSTRW+XvftlOKjrzpwBEXWGugzsoO0BB/CS+fl79AYQfgEfxuHFU9t0Fm1g68Fvfyy/2d0u4ulXyy0X2d198f6lV5+tL4pN6eiSvzOY9hEshxuthFY4sE/a39OpSqa9pgmfpJcKKsonMFUiH/vVteW9Lg5X0PnZYx1HRP4DjO+kdv86JQ12FgGnfJ/Xxln73XfMLhOBVMiKnNSxFQnscSC/PdmsfFwA1+RVeNypjAIw9tqS3B537yk8ZSsD7tmSk3uB6CTFSjP9o1/t6JAPEo3tpIZ537bwwPB7I8pEQ0cDEDhu58iAurzu9ZrNAPHQVA4KiZubm4L2Yz9B92FldkVGBfV9+Od9qNWCgfDmPill4Vufx0nlhNn4VX6ph+mtm0oPGjiGpxgEFX+OLlIjHb4rpbJbXa26uE0ShYoyP5UWz4gNXIFjdq26X09AG5MBT5cQ/d/s1LKZECMZvbcdSjN8pLT+6DHglvu16ELH1gUDuDgPExmtLOfzK6pf59volADPF0BWqiPvOK8pnqBCgSTtjdmB70viUSvAqVU4HdOPH77OD1SDG4+dAMXmH3aa4yYlVR4BX1awptkC/87Y6NRoP0sF483Y3a/bfTchHJRT7X7/wPqP5+xgL0w3pCXwiHBivRt2X7KHO7duQjzaIsiVk4ymTj9kUsfmUHAAANHz/6AVxmD121WpNbmYAPlgpMqw/S3X8YBvfL9fPrxuC1+f1MozjwFfNGPtFp2n/+Rdg2j0xKJTDcUO/GxF0/dAVp6lI98Tb7m5IPppmLdWe8EJET7c2p9mGH+3Sxhi7rbXZ+GBRCWAfXTkG/ogwXt2Me/kLgKR28EXwLpn9WD1sAKfPZQhoPTzutFsjnqBzbB+tdikK1HU/fvjIMz23NthgPFu270vyMXQ8pRO2ejfDAoPB8COSW7XXwg1e1tPTI57rALHN/WJ7IuG6AlbYXq4a5CuiF8bwPYlLZCkQ4cX6TGss4kOszSz1bOXy4AbhxmxGi1R7L5XY5i+YwwkGRIu1i2iDfa9q7R3hviSrmingIBi+tYuJ5zheGPoMYegpuv4nYDnxV51MNxAbH51cQd0icoVRELfj2E++5qPnR4rRfNF7iAmCiPhfeSyzCl5rjeqyUxuv/JMEGke4pM69T0aT2W6IIGA4FvQA2Oh7N5uMev428L08+vSDWT12CsaLc4UR0YkXtbvLx9WQdSpsxcIotQbj1Riunr/CdvRwXpXx17DqLBwS9c3ic9bp+PHL22aKcB52SCYmmm7eohf/3K724k3VRDBEfbGqwf4Lt9uynosxX0ImpbF7/q/TPSmjpb98fVepRAhWp9Vn+a3B69S+aK9QIYeTQcs/af8PrVl17tQ211k9Xobw5f5jehUzq43B9PHhZPJnteZGRckb/k6iLOskX/bbi715fYVjA23/tu2eoGXynWkVElLzzL6zVhR8DHE516UUKY/dz+yuqbudlR8SIX5UPUbicKL7CSqzPKUkqX6QvRlb67Ijom2+KVgEDgj88hN+iM2ZF2TmOdFXubRaeDxQErJQdOMNrCCJguRDN5F4tPgHvltmZxhPI08V/Rjz16NRld8mWnwO/AzOMbfE3j7Yx+obaXmt0Tj/k+rigGC8bmXF/vaqJAnBTDpefJAvSHZV578Q7DKJRVubUiQEs4ynf15/YtfQL8H2pCWebz5KWMYTfDDJyF6Cp8pzew4IvpcZ/I3x9e8ugok6/LntSX3tdRtvMvoH22slzJDP6g5qUt9xHcNE/fzxSh1mPX1v1/78ztbWygM5VntyzelGpX+x3O17/W08mgsrzbR9uS8FKuooEtsfyjl8Xng5w1BVjFqtS+Mhnnbk+G7pwVdV9dg52OZCGRL7l53Xw9+RyiS2H83x45KSRnluLL7EpKCh4qYrJ7ZeDrBRRWXXvWDwEl6o0txW06dzwLvKL4TLwgkx+FCYu3PX/OkcsLtTZP6Fz3WDd8VBV7e1q51jTbG06VbhG7bFgoX0CjuTL6ik2VMUEE9VD8w7RRandDBudBPyaTR+fcoSFnI0YK14uNJqfv8dAXYKX1rgDUP8rvj5/v5m5GOeRnYRubehPW6Lpx0tvfHT7ymQxFTBkJuXz1Ym/iJ3p/nT72mAiewGvSRXNAQb+UeDukir8gMrAnWQ521++C11eC1/0Xj0kwDhm1xb5HnX3l5IP+fqTbPCq2AjSwoW3tNZI8XvW+EFaOJgmqn/zgEPZVcanPakkE5Clwy03Ryd+GmoXitqnZnoAdZSDdEQE3UeKBKSM9OJZN5GOqTiBjcgBzQlLlKScJ3aT4oQ2L6VDFQBKE/V0d2nEw8T8F7K0eJbi/Bp0Hgv7Kk4ezwg1P4n1pLesoKHxWV+mDRhVXe8zKkJePYifLPVKn2YYMmT1e2h9K57kGV00BQ5KUufZGQeyN1KhGJqSJiRl0iUlMSDlsjtSces8+HI5Q7+tyVPmjG+C5rSiwH9XSmPN+n7kIxGiw3ZZxRvJcLeSZ50q1ShRPan+/OrIwS9EBuHTOebQ2Ry9rpyU1s8F7PnSLULIfZEVcfXv6LPZtJzAh1GoWUS2VDZNjqW0ssXxbfhlfht19EHM75I6lQ4uRv7g7LX0entJRNUgGfx2aGK1VKcvqxb3SssiU7DphQAB/Y6OpGcT6inQpZ9LAMi4YSiary5NBZVbci5cKBaQZxJkU2lZwRofGz+VbKoASZpFVr6di9KKJHPOtFlSTazSuJHDkwJVC7GzFclcwrUxIO03pvw3FeavUxKx8Iu1GSckVQ2zpjDuNAQYnx99Ix2aQJJkOdlivOcsaBk3QlyuzpG9Al/RtAz9joTmofth/ITsFwOaH4KMfyeBnu6qsM3QHEmKknSci+KGCDiTgRyvjiDURxolxFBXAKIXwUFuTqjBTxuC4FMVKcxMKd8nDiAGiUjY+Hsg5xBRTtQB9UAkXROd7Z7yuZyZF4CH4KLyTfRmgUDbpcmS6I5dRHznZXKI+PPyFPHGug9PRzZnA6RAmppGhC6R8/feeNAsAt5WDiwKZq12WUKpGw6LD1Jej1KnBQzmgy+FnsvKNhbnKhzIY8FjIjvyKpIGfHMI/kYPHxXrcCLB2tgWZQyMHEo+1ywYpkvW4sYBK2XU5PMTOPA8slrHyYi/Y+xdDXWoLJX0aBH6ZKcQU93kp4TzjGj1WNopRsbrqsK8scvHUmBeJrJ1Mft8jKi1itxvKKpDdykl9BGNbFPvffff+FYOzDeSMQjahdDyV8Q44lDBpeI+ROjCF1VuYCcDpPmgdAAH0R5Cd+FlMAo6f6YoTR0WXqGwRlyICdSYyJxT2Jym2zGLpkDoTpiW83Udse3LhMmJvGjRzWJtA6u/rsDD/RuiP1pMA417ks4T1wTDpODrYdlgpR+kPo7+8k7iHbwJN3DRrOHQiFxZGDn5TizYxq7GWUVSzghK4Ua2XKHtI9bEGWrYwUYrVIMMHF6vcEfZ3Jkm5Qy1eNAZEanSak9kflDJk/dknHoQjQDw+BMXsYhn2froomvPYwGfxX4Q1sm8lY4Pv26gXhk40nXDxs5I9ltzjINxqnHiIxNjZdhjDuSrQo76a3mfbFNCI30K7QW86Gs9cVrA6o+ZpkaN4fKa4NMMIJmxjLHyCM1xg7FKjMWpLDoLCPWk7CnQm+YmS5rgJmsQURVSLNWo/5BwiKM1KpM2jIw0A9FlMQRw5nIyRZMC9g24YH5jmbj9FO0Q3xoHAdKROY02YLS99wUGp/cW4p5GslD2Tfz/MSEvN1wA9JR8OSQVy+GtCoskPYy9nqoJeli+OB7yI8jrr1bEU5jDXJk8NRJtSopHviUY3YsPOjmQYI2G0yE2Kc0vvV+wTrjme0rqW6nnRkpEY14iUHNszl/mQW+qqz/C01hpkKwsiW1el+4kXouH860QLBALH3/jCUf43/c7jP5s8CvqentFqkJNfyUCv9WpYyQVUNgKNUdx9agEBy3NTDgVQYoMpn0DU10ov4tnkvLDUOYxLMdatO0E3V6/7CFys/Igp22EoiDqyFqqwtYcJnRRpukZyQfi91/FGLQ8181YaJk8P5vCyi40XCtCTNB47oo8KqB2H5xF5qwK+Pvf9mJ0uec6dov0Qbpcj6ojyKuCkAkFLe6lv6n3r25/LoYQHrCtaVrg5R8jvdPRwkiYE8YtKOl8+9DI+rfBRilRkU7T0IcVJ2g+acgHEjzH7U0S9vdP52JarQTkSrq+0NGiPEj4s29olQcePbnWeDnB9AgnP+k2/G68aHB1wN//OgwWHBqi+c+HZ3kdvuv9U4prQYQb/qRq1uuf/dx/Mr3ZDlwvyaX8UHdHvB4s9Ct5esQEwX+H/OFTD1MtPuOAAAAAElFTkSuQmCC;" vertex="1" parent="1">
          <mxGeometry x="2030.43" y="2118.75" width="189.15" height="190" as="geometry" />
        </mxCell>
        <mxCell id="aqL1iTVGjlDUT3vSjXHd-3" value="" style="edgeStyle=orthogonalEdgeStyle;rounded=0;sketch=1;hachureGap=4;jiggle=2;curveFitting=1;orthogonalLoop=1;jettySize=auto;html=1;fontFamily=Architects Daughter;fontSource=https%3A%2F%2Ffonts.googleapis.com%2Fcss%3Ffamily%3DArchitects%2BDaughter;fontSize=16;" edge="1" parent="1" source="aqL1iTVGjlDUT3vSjXHd-4" target="aqL1iTVGjlDUT3vSjXHd-6">
          <mxGeometry relative="1" as="geometry">
            <mxPoint x="2125" y="2461.25" as="targetPoint" />
          </mxGeometry>
        </mxCell>
        <mxCell id="aqL1iTVGjlDUT3vSjXHd-4" value="&lt;p style=&quot;line-height: 140%; font-size: 30px;&quot;&gt;&lt;br&gt;&lt;/p&gt;" style="rounded=1;whiteSpace=wrap;html=1;shadow=0;glass=0;sketch=1;fillWeight=2;hachureGap=12;hachureAngle=-41;jiggle=1;curveFitting=1;simplification=0;strokeColor=none;strokeWidth=2;fontFamily=Architects Daughter;fontSource=https%3A%2F%2Ffonts.googleapis.com%2Fcss%3Ffamily%3DArchitects%2BDaughter;fontSize=30;fontColor=#666666;fillColor=#95D2F5;" vertex="1" parent="1">
          <mxGeometry x="2025" y="2110" width="200" height="207.5" as="geometry" />
        </mxCell>
        <mxCell id="aqL1iTVGjlDUT3vSjXHd-5" value="" style="edgeStyle=orthogonalEdgeStyle;rounded=0;sketch=1;hachureGap=4;jiggle=2;curveFitting=1;orthogonalLoop=1;jettySize=auto;html=1;fontFamily=Architects Daughter;fontSource=https%3A%2F%2Ffonts.googleapis.com%2Fcss%3Ffamily%3DArchitects%2BDaughter;fontSize=16;" edge="1" parent="1" source="aqL1iTVGjlDUT3vSjXHd-6">
          <mxGeometry relative="1" as="geometry">
            <mxPoint x="2560" y="2940" as="targetPoint" />
          </mxGeometry>
        </mxCell>
        <mxCell id="aqL1iTVGjlDUT3vSjXHd-6" value="&lt;p style=&quot;line-height: 140%; font-size: 30px;&quot;&gt;&lt;font color=&quot;#333333&quot;&gt;&lt;b&gt;csd-counter&lt;/b&gt;&lt;/font&gt;&lt;/p&gt;" style="rounded=1;whiteSpace=wrap;html=1;shadow=0;glass=0;sketch=1;fillWeight=2;hachureGap=12;hachureAngle=-41;jiggle=1;curveFitting=1;simplification=0;strokeColor=#666666;strokeWidth=2;fontFamily=Architects Daughter;fontSource=https%3A%2F%2Ffonts.googleapis.com%2Fcss%3Ffamily%3DArchitects%2BDaughter;fontSize=30;fontColor=#666666;fillColor=#95D2F5;" vertex="1" parent="1">
          <mxGeometry x="1960" y="2639" width="330" height="140" as="geometry" />
        </mxCell>
        <mxCell id="aqL1iTVGjlDUT3vSjXHd-7" value="" style="shape=image;verticalLabelPosition=bottom;labelBackgroundColor=default;verticalAlign=top;aspect=fixed;imageAspect=0;image=data:image/png,iVBORw0KGgoAAAANSUhEUgAAARIAAAC4CAMAAAAYGZMtAAABO1BMVEX///83NTW75vvT7/wSh7E0MjIxLy+/vr63tra6ubkqKCgfHBwuLCz7+/sAhK+5uLgjICAAfavw8PAmJCQAAAAbGBj29vaNqLW/6//t7e0XExPn5+fv7+8faoXEw8OCgYGtrKzc3NxxcHCfnp7Q0NBSUFCTkpJ9fHxGRETLy8s8OjqnpqZvbm6bmpo4MS7C7/9bWlphYGBNS0ucrrbc9f+LiooqIBwvkbfc6vFSn8Dj7/S81+TM7Pw0PkMbc5OZw9cAd6iMvNLp/f8xRk8uTlsmXXIdcI6RvtRysMuswcqFnqpldHtTXGGx0eAWf6WTsb9SSEMnGxYAWnhth5RHUlgaPkxWZGqTpayCkJYuTVt9iY9mn7dPcH8sHRTCz9Y3iakYAAAAa5IoNDlJXmkIR11ZlK0PLzwAESIRGh9zlFhmAAAgAElEQVR4nO19CXvaSLa25Fi7AIGQbJADEogdbCDGG0mIO+3EsYM9WTq9zO25M3Nn+n7//xd8tUqlhc2x08ncnDxPDEJL1VvnvOec2sRx3+W7fJfv8l2+ywLx/uwCPKzYm59Wf5CCfD2ypMWZnwoMJPXOw5XmaxB38U+OHH5mUJBH8RMLyx+R2bBIX1iCxibVcAbsr9HCj8OPlVL4sVjiouKsoJbKBuX78uIEn3r4T9thfo0axCikDHsSfPSLvfhNm+yXAJ4ACOmrJONAN4JyutgoBgZzVjXCtK1y+LkR/OIXG/Gb11itGfjkg0I/2Ak7+yqEIlFwyYcS1n6vPAzOcXifvaRVdIPPk0BJfE2Lt7k7Yb50KI6FNj008rmvUZp7+O+A1qctwv8zXTFo83qxxVyQGRlBnTi3SPnTt4wI9wDxigwBOUX6cztHL+5+VskfTIZYTewyMYCqgbS5pvOk0eWuaTDN7wu6FRBLrkj1wLfEuNnYRcYtZfgyAW+ikUNO8ev02HtGFf0dFPH3nqZP0B+e59WB5LZ0QxBC/1KoWoIeMIBraaSeFUtQ42YzZtwSNzQIeHJgde0x9zWK3TM1qB4FC1u6XObVOrR7Hopqqjr8K0rYAvyWBb6blDOrGD58mYG9Tcin/SKDUU01sBZ6ZZ1e/ZUqidMQ9Br4OxQ16HJ7Fs/rzR/+ZvBRMa3xaNTQDAiQ4eJL/bbKlzERDSxeraFPucBxT8rV8DETw8Rue0+ll+cY+v6qRAGVN/vSUOfF/nT+FkIhtK8MgY+LIIr4oIjr7vctgddxrWsGL44RFlWJ3rhniaHfrmsCYdK2zuMPTrmcFpM4Kce+rGS6sJ6iKcL/j45EXHs9AQiLzdvfBs2aacBzLWgmDtAWoQuNoNAIPJNc1pTgKW6Z17CRDHVNIg8mahUV90+G5IdHb56Jy2q/ABNd1fFlSElcTeAFAfqWiqHTGlXKej94jgT4CatTXxUJpY50LR77w3s1k8e+lPzwaH51/cw4ShrIJnI0/aEyBrYm8r0MV+hrlCag/9GDGgNExDEyopbJW9haJqYZD2KA1I3ksS8iPzy6/fDx3ZEqfh4eSAzIOkJDtgtNSxepc64A/xOEJOCLIKAotWXwOrYs1xJSorRq8c9IAjMQjqMj/R7QCEVotEaayvOUL4FH1gOiUIA7V134CSAiqEhbOgG3sNIv9xPHHlp+mF591O4ZDoyJCLmFaAD0yEKbmg2AhzebEIi+yfMa0h0PuOxWvHCFtirufSkksJy9+SAeqQvhEERdp2DtU3n28uXLZ8+edXkBflsFjIEaPtMH5KJSC6hDRKqAdO0hUCNMuSVVELrxLkxfFY1c5MgDdy6dvbk2U9UD1XVfePbyp0/VZnPUBd/5lz9eXFw8hkL+4M8/dhEoALoFJKReHYIATAQePMj/qiAtMFseTKXBYYGHDqkA/ppx0uiVhZhTftAcOfPm2jKTzha2+zNS/VdXuUp9pO4LLy8ev3q8QF5dvNwX+FZ90m/wahouRx+vdUi3ag3rgD0EtqK2fBiYwLNNGJLYwD+ZMV+b6WvAKUXMxn1AQLzfVENMgCE8+/HHUAWupMpgfLT/jFGKV1ASqABQ9IYiSU9+/uX6bRIXAT1IHOLoxIcKo7Y6XGEEc0gMRKErAvuJmo0HVEjQI3zbfLCQze61tUgoCg3l2a8XbDXff8hVeo2j/YvnNzc32e00AT/cPH+OELrgj+SBlHsC5effPnVp1MY8oosr17SgwlQ7mQEugtoHSbMDiFgcRyP5ATzRjHRRVh/KG/utMsunhCcitvD8H38FvqH5bv8CV/40wOR0ATjP/0suN6UnVH7+AGCJKEt3ZwtwSqWrQoWZ9CaGig7rQwCED+xK6Ebq67VNqEETVnFqvTUHkDYUeWwxCgLhuPjx+lWAxc1N/vjycnsOysn//usNrnF2dkw+vD5NV5jt7PnfDEP2Akx2dnaurschKvovuwfzn8ca+a6SMojjDorQALfKbCknUEUA+7CGMqo+hNkUBqoZNJ3AE2O5aGE0UG2zU3zqoCw8385e4mOzGUYif7YIkvz0/GZfLRw+ejp9QzHZub368JESiyjoSWcvthUuU9Mg3bAaIOtIhfQRO1DWbT1At71TLasBHro+7P5ItKP63zdBa5/hc+2//wq/nSJMsq/P8ujHU45Acnwch4R7vn1z1OAeQYGw7GC53bn+qC5KIsWxwlVE5Id7zKhPG3dC6COGWn1rdP89S14/sBhBVBu/PRm8hHA8B2iMZrTts+f09KssVos8PkpUgUCSn8aUJXta+Mf29qvf5cNHROaz2yuCytV1NzU2FoY5dwhNSey6gQbk2sS49JEUFr5XHN07tXqjMm0rUe1e/wxUu/34FXEl/zzJ06r9Ri+Yo0P5kxn4m73kXqMzOQxJ/nyaj0Eyd+EPF/sBJE+3drfmt1RXfnmbcEEwCdKRAoljmSDiTUzaTaWOpCBQLQzLfemew1avTwEBBjP6BTuF90GF/uUHdvCMXvI3bCqXXBb9D0HLzjAk2WPuMqYlee4T+nv0hkLyaAtIiEqqquDvQtv1uUzBk6t8GBqYLSkgF9fQatL9OhunZgWAdK8RHm+mh1dhhR4P5rSK/0MvuiJHoLoASDgAWt7GkORPuBiTZC/tf6EPF/1DFhIkM6IqOx/a6cmUoOq6qmlmCJmgNgMM/IZhVO8XEbta1umDPn7AeIASHz4Pa3SzzxFDyFN2df6dpweOsxCSGfofqkd+xoWGhv7LvzhzH+MDR4GW7AaYMKqymGpZ0duuQjDwR5auD+4XkbpBQwD17dXtzpMnU1Jklg3+8DBX5EE8wjXaw/G7C26WR7Qx46Z5CMZZHigHhAS4HcIswIIAQtnsbDrlGkSpfpqGZBLKLlWV26u3q0ERqxXMpSW3oYkAn3vlEUkwKSCfACA7t0GJ5ywkF1WkJrC2nPtuH4Tx26fcCdQBeOg0D/Xj+JjDkIAWO8YAnp8BRE5ReT1yu/dv0iBhVOX26tNKULqjnpJzq20NBFFqP3efvsZrEIcmIA3ZmW3tBnr9miXIm79z0A9DsrD/2H7+HBMrd5mHxMmdvYBQzWYIkhdTqDHIZk4gNHnSgm/w/Z7/nCQTqioBKG9X9VeJqmmq8CRRbCr3GI9kJoRVQ0C2ntLyHkZ9xk91DnsUbkK1BxrRPJ8FsQh3CSE5Q/Z8CRUGkjHUnHPw9x/0cfi6m8WQQPsJQFnca8WIYI5k+R5jVsVUCSAfISDzLch3ISTRyPz574AyQNjBlS5O8+QXyB1nx3kQvNlBAMedQ6U4zUIVwST7nhYZB8DZZZCE/gcS7UpQ9PZAUlbM4NpASiMaBHY/IECwLIJk+58D7hJyazN/eXKeJajA6p/nkzfPI3LJoJMek34fl0DyJM3lpIFSHy8HRRcmknyPRtPTsM2I+vVOCMjW1qNFkLx6V8gABOz3wI2ccdPLfDaL2ZabJuh+inwPie2z7+Bnb/IH8cpvVkKytYVC/SdSs7tw/FDQ+aqiyPeX+jpjg5LIDuSQrdWQbL9EfcJ14ni5zBwYUP489fY4V0YuK4u4pl1+d0T7Ef4WPCLucuKcoijShE8DBaRg46akyPfYzzogtKp3f7lFpJoGSTwkv/k7bBIccOWRYz17vf1ivvAh0Otk88dzG3U10Z4VQEBrQIK9j5zLSUpViHkfQTfbrR4ApHJ/4ZnTMImKAJu53Yqq72JItv8LXFt5Qdp6G5kGd7IYkuNsfvs1inX9P5i7rAkJBOUJwESRlElbFQUooqirqjCqupKUkyv3OHjTIwme2gAGO4/bc1DeR+fxxA3V/jJwwbPlj7kENAwxy3A2tRkkx4drQgKo3lEAKDlJqreGjUZj2K9NBgAOgIfcuT8/w9kjyiKTJxESSUAyi0MCW9wGDoZ+P10WRZ9h9ZmDc/7yirlL9nR9SLYAK+fkHKAUKgpgVFmuePcZv1dMnaiIK9+mlSKEZCtuOBARPgNTGyz5/HTF084g+9Yu2Jtkz0NIFnucABJg5hW33gO6oeSAcsiy0nHut1+kioaKgIpUpVzCZrCyhm0YhST7b3C9v98C/uT08vz8/PVsNp8vJ7gpRGTyU/Q2s0frQwIr7w8NVTW7/UHF973SfffAl8ZkHACk1pWz9FKEkBxGe0+zO+AOs4uau7YVn0MlGvwRuct2fhpCsgoRCImLmQ+6XWXlEzcWBbteQW1JIC9Y0EQMJNHAJPsE3OJy++J3A0YDayjvHHJP7yfgiGFUF9zmcCNIvCL1vLquCdLKh24mVQuHq926Ajz6AiVhMuEYv2ZdDuX8j/fLdeBIzudnaz/5bHqZxq6rIeG4EclL2/Vma6gXG/c5LFFoYKNRRzmUOi5ke6bE+QQkEKTn+0bDgclu9vJkjQefzEAOGICbPQ/vv9LhbHGeRgM0WQJ+x20V729SWgcPeQt6U8J9cguLERb5cDsBCQLp5uVRcQIYZTpboSj29PVpxGoAlWxtAMkuN6R9SQLf68gwHFFq95TW9LCnAbyaw3nBIruJkEkkfs33QB3zKGnJX/TXWXfWOc2+yMc9OWM3Kx3OYSdQEl4we1zBV1yP8+7F69RweGbWlBwZM1tsxyEkUcvJ12Hakt0+PZ+uzyKF+WWeRSV7uQmV/LDPZjdmG7QmQOU+4ta9NqIRURwoQSflkhZiLId1w/kBhOT09XR6cnKW2SBcmp6GoGxkNwdNlWdFKKOFS87nW46HO3f1Btslt6QkYaEjaU52Ag0HBa152PLH//2hOlmvdCeXedphf7g+JLvzo3ingG5N7sNqcohGYDCihLfLLCkKYzmPWEjglDDWkkDivxSR+clJiSrT2SkeGmRC15V2s9tOjP0JgmrUPzueb6JoROTrkX7sZZAwkQlLsHkICWMD2VWp8MkLoE2vLoajlgu+TdEg1+H6kBx8UGOAiO12V1UtLbE0cjPBxKoO5WiXnL2sMEyxnwZqQfrPzmjnQP50JcmSEb/nv/6+D8NOYD2v2Vuv0JHZuxgiQxCYKHJv0GwXP0NTbBSfCepEig0QLtMS1nICNQmT3nPcfQhz/8x8uaLQUdDsxTsY3E23GURW2k185qMwlGAmnFOkEteZrJ9pRcVBvblhMLImJBE1IbzI9LGC1Cd/CZppepk/XlGAk8DMLv4OHBZrNiuU5OBjYsBPrTuO4/mdnKsAfJ078ayHpliZfSWXpMGl5WHVhAwFMwU4ebF9ApwIHLdYqL/2NI7JzU9/8dZXkoNrNY4I4BKiGbbj33HldAVOcBMFEIyklHx55MgU/RCN7t6w156fzbbzeMoEtygnPs+fI645C8P59ywiy5Xk4CrufwU0FSl8lu3cwXLgvHzEq6mALm8l1g+jEPYxe+1f8+EkAm6Sdncgx/n86ZTFJH++trs5uH0XR2Q40nVe/7yVnwMLJnmTReODi3OchJrAeO09Q0bOP0hsjhDBkLCWOUVGA6gVBHXnJxSTSJS2XEkSzgY0rSzlqoKujz8jKJloqH81tzA7Ww4JqyawK+nmL+GVfVJF+Nn9X1T/WdBLkIHTCJAfQpEvHMc5Q2lBlr3lUiXZnSGrEUUxdDp6MycruZaqju8cvaJVPVVpyfjgCn5jy/8IRFn/HNH2yf1rOyBc7/+hmRJnLwBvZBAQMCU8zqNx0WMS0WXRVK35ukwC4ngBDrr1W63RWCVThQXRLviy4g617h29b99EKpLGq1SWu+EoJsATP//dxBNP7SJGBOpFRrzBlX8BHjRHajM9hfqR3T7jInOz8q/XNRugI5BJW2SQot7qqnQZU8aXpaZo3CnrG6kiYJEV8y5WBAZRPc9uv9o/Auzkcty/0aAw6mbsP0cTTs6zcO7AKcSFm784gZMu8KSTMAFm+wSWms3BLVpJqTfheA2OzHp9URd4Da6gtjuy3C/eYSR4qKojObdqxHSVmkToZJ7fvvl1f/9IhLMCILWeg7tL75GyQG1AM9Ugrcyg0eS38YSbIB2KIrIkADjYwcwqjNFwje14FTmHhkCFMppCX1IUN7ZKa7VkxkZ3sEpFoByuwORRBBMUndyYMp4icQy0w/4JVBZNIoFzKsh8RqAxJ3gSRfY4Q0wnpiNL1PPgA/U14ZqSDEBFkQYNtYyR8GWvtlkHrN3WWmsOqq/o6NuNYLKFfOmrv2D3Ckf+qjd46h6G5Bjhg+czznBPQPbkPJsISJbOoLgOIzSLGaCwPaAq9QbZmaKQ86S0BeULEeGH7roTUVaZTgSTR09RGPtHBVYbRmneexStzfPB3GhoRTABOjmj2TJckpKfRRBZTCS78zY7l6QcGbRxJFmqt8lGSn6nUF3b8ZRGrrT+RJQV8VqUYh89gvaAAhQ4iRGFJ/kzG+XFrxGVwtwQ6sxxSCLg39aaiABijWZ6ZTdSWACKLxGLKVU4d80sx+54srSB415FJ1FMDs9BJP++AzsOsZIAWj0lk5KQcznGwUj+JPA1+dMoqkt05DreP8JbMcpwlE6mQ+KKju2t2fLehjMeN8RkCxgPnEMPylVDaoFZIz/F6yryZxwObMnKk2w2ZjQLETmYdWNdz2KbV8txyvDCOb9eKbMWJv7GLnszTKCi5NFotfMe9aKQpVonZBEO0ZYsQiqbP326HiK7Wx/exSZfNXKS5FbbfHwXinAQx3a4NaZV3CVhXsUnuzFMnp6+gMWsR4Z4yOIb4Gzwh+NjCMg0BsgiRBIqAnfzgF1oSqUzjM8FZ1ypw9kPs3J8ld/ZitXrcPpXUKzMMdt5Twc38iQSyQJA5nFAFnjfg61P7xLTW8Wa5DleR85lOks6nx8IEW5laB83nkeHj0A0b28zmBxHsAGZ3mVCQxYgsrv1C+toBLKgQBCwxXg5j/MX6/6qETbvzqNgGzpjBEsmc5wY70X6AWK1+WECkHSj2d3dEVmbEcZyC8+INmivhuN/jjJId18UumoEIYkJ7JY9PabT1sjctXz29Hyagke6igBAunS7HLLeoyFJvS5azRduwujYnH3nXhJ7qNfviMrZiug+RVEAKIePprPXl5enQC4vX8+m4EgKHumJHgsIr4+7SDtUxZflMQxirdB5ZmzoXu4kBY/r8EVhIi25vgByy5xbb05aSKrNnlvxkN1u6I5ZYIgsOiFNRXa3roRwQyWxVQE5DDAhtcfZFWUEPsV3KbzjPMZMp1NQxmXLUofVutzxPWdvb68Exz4kgEJrNBYtSzMMU1X1QFTT1CyjUXW9zA/LNWV3IShLJQWQ3YP5dWThuF5VQGI30QW005Gv1AAmRmQ9vX1nRnFkxcu1RBWIaRiaZgHRKApLtnUSdFUzhvU3uwfLYLkDKElAdne3dj4eRRcLiCO/5Ek5ty0iIDylZdLtjwJM7s6xHoxw6q2GiDAQNtm/SFSPjj7tzHeXobIZKAlAdnd3Z9dHyS3I0IZ7jgJMRodVLykTM9giicgmU1oSoEiwey7Xa7b6w3FX0E0TKY1J7QV8hgfStUZU37U/3G4dLMbl6bqoPE3c4mB39oE/SlvKaGAy7Si1Msr1ChLAxLrH5UcFgAqdeq4oOVl2US9mIDnZ7dWb1dpQSFtqKehHR2+vZruLYVkDlQQeuwdbt9c8s6+SIIrhw+nGnp5Sxdt42lLTFPRlldxYMiWvI8lUcnj+ucweQIj1WunLT0UAy6er2dZCatldAsvTuL0Ac5lffYruyia0a61+N+DYYHdbZYJ3DoaYJHcM+3yxC47jeZ4PxWPF9zsViFhO6jFEJ4gsQIBa9Le/ACNaqC4Al6cxMFK0Y3e+A9Qjro86XEUiNWlHmumSIhekKu47ywBMrC++q15mz+sowcxSXR33+90ov0Bt6V4DdQENvXJOZkI1ABq3v7zdT93CUOwrqEmqWFGEYFdpWyKbUUNMzIfZyGe5OHR5TrcqQ+pJTBCDM/qP3rWvr27nsMnXgAZgcQAXzH94u//uKGULDixwW2nbUxTgeZHlBFxqV8iQXKbS1P6M3W4HeAedbhMthpJzLUZr1HBbKwHqy1H37Yer29kc2NIBRici4NjBwdZ8tgM3Cjs6SttCjYkKVJz1e7ncEBqPGFbe9oluAD0pfvm3fxSgkojiRAJuSPH2Mpk6WZ8CA2C31xxFluoCYEDsAqT99vr6w9XV1c7OLRC409PVhw/Xnz524Y8Qi9R4SOQbw0ZXxSwrCKTeFaUPn8kkNTbtS8tUJncZ2/s8qem8YPZluHwQlwNBIuotGa2TUiR3nKb50IPCCEfFCJE4ZwESASJ9NM7rTvDUZINyp4cCeCb3DUPVjDTRvjCdSBawmbqkyBJtGLjaQx3K4JCc6/gdRVYad9gAOISBAakr4VBAkZpwu70QAwdhYqUl8Rmp+mXppKQJag3WPiiNDeelADMCVoRbp9CRk4y7tgi1YUBHUEmcQqEE+w/lBuAPK8jYSxATMfU9FRmp9UU3QW6rQEVy7FiYawoiPMS0mDdImUqXDgA7SwaJ3qzINZXuMB6sRAOOZqQHISuQPfg9VU2AU36wXQZTpF9sQX1gBwaAR3QlOToxpUNWWuuUasVuqDh6EIOJIK5p1WjsRU8ANkncrNhn3+agDEWe2fG5AL6L6SZiV9acqn8PMilKIG+OMHql3JUTS/ld7KfbE7eBKio2lDqtuDBw+8RHtVA8Kk3gT8JwiM8wXTh7aISPsTVz5K5gMAsYS8A+F+R5hc7nz5tfT+piyYnNI+fGbYBIXH+hSggmUCgFmZDQzSnUltSelJNqKK7oV/AsGfyb2msh3YJ9QjZ2s3gj20CcuhlRC8dN9KRR2fPk9B/uWdw+V3JjU7ckw8klph1U4O7o7R700xVcW0XpYUjMpiR3OsoYTi4bKDkQ13AZTxohd1JpIkzQ/BjsZo0o1l5Nt9hneXVVW7DEs+R8iehE7nF2YvRdL3WSEzGAkqgjBftpUEu9JsmZJjILvY+m9th11GsaaL0MsRAdYF0CTV4caDt4v/BQOoIaiU29ibHovTfOXsp+/PcsFZ+z5fhjmr6dfBFCz+TNKvVBJiJMh0OkIrQJ7RSAmqhuuFME/FVzbJxl4+RlL9cQxfiod1WNQtCpxSZQhFJ6cDbxSsDC409xZC7Zub9nCfpAypE1gSavwg2qbAsTCV0Y54LjjLlDszJlEI5D9SGEsQfoU4s90dFjfrfSWPjagXvciSJVQMBsJ60zx6XM2Rip3dArZwyhDcwG0QtwMfAjFl1QGRqAq3tVGGBVmuHG+05PN+IBxkSLhmG2nPZ6BiwPriYpY0Ve2oblbrnBeOWCpg5y4Lwq3IG1zcw0buoqU13boF2HnZYadCt7TS0enzpWrC+xNCg+tDoskkwyl7LtlNdUOsWaz4SynjWWYCwB0zu1x8xG9yyVjSm6AoAENWsFRmR0N8VaMb4zzSj+rhuv9gCdi3eXQlI39arNhi6d8gCu7YGGATIWmTm/G9k0H/Crjl6+wGVkENK45HClGzcLqRw/0ul+TS8pTGpOrcnlZEaT3S5SEuiChei8yWakm7Qv8uqAbLPfVINOxIwbZ88M89o6IvJX9NqopI706lwnxwI1GSAcQCAKHE+EK/0iu7tICwQhdPdrZygGfqWEFoOyUivHSa0wue8tOe5RfBeEnRGg+h6sOLAboSHJEaXKsK/ag/SrB2YlmXrgV/y4CijlRKzubTLP98tKqcIVYg0m+7C9mzAQjWdCQ3YCFYCkG15a09Xgsxu7414xCUDFvVuBH1wyHpeJZaYlG1VIEEBIEtfuARthVHVhGJ7gqVrg3e14f1CXTzzZdh8+er+rJLkfHvE1AQT1cXfaYV62B7hErDFwtoyws8iL3bSaIBO4SdbmZf0ykiwrenN2VVdTdp21WQPoi3qTCfsA+YRfYuGgXE7Z9cn7StUkJYJGh1SxEQlJiFSZQ0PRjGTZbERWiPp6L20rn8yf/2LCTaRimL20aek9Jn5pC91I92WlzPQCRCP2TGJWePKcr11Gaj/BrVA6TMsK4ijqvU3G+cYUrD1MS+j+jLHgu0qhLMqJjhYozOYztqlXo6hVywvr2G984fep3bv0rGr6jt6M/ZcstRdl0c7i9902G98WcSSl3Y7FrYGE9u9rXSVaz0x54XC3O/ya8rw7iFdM7vxBJARK0vq5GGzDhS9grPS/cUha/c6iJakhS9a1ZiK4bS/qFfPvOqH7K5FM0VtjLWVVS6wvrFgLSdT/tiGRJ94aqfuwocRxc4oLK+592x5nbCeSmxQxJknjWvx+228bEa9XWiMjKxXdpMuNj2v9p0iTW+fVPP44ZauixpefdPYlxJbWWojaG6RkhbWFAzTftHQ4f50BppqfYl3V/0xISimdSilSi3cTQWmuNhzb87+lbA/LWtlIQemk1GzgLr2o12rollb89lRprW6Mjp2W4vWWryTBL/NWP3NHyq9VvEyaeXWWEnMGT+FJjKP/p0jqysTlvmoPbwivfev9BIskvS95KTP7ZHPrLzRN74tLuttY6kykYK7fdyGCpwMmZm79X5YqfjH7t+eDH07wWwnMB3i3yTcreNK58W13Jt2r2GUEifVtjWg9qHjEB//Z5fiKBM2n5hestLh32ctVh12dH1bjOYZdGfQbXZFv1JpK5A1nGana4MVxK8ce9Jujrtgd1RPhZaZTrw27ojDuN2X2Nnan3tfpO9abQ1Df5NKATnPUFoXhxCPzz4P5GJ7batM3h47Escte5PVaw64gtkcT906Js9e3TLgQUxB1rcFW0asZBnxBIC8IompqZiPoZa6bhg7fG6gb4ezeTttS0V3UcjVyf6dqBrfRTc2gpZ+0NXDcQDfwhvBiQbRi2yoMdAPfVCfvpCdJn10TNVPX0RxZXzDBpWG/rT3gNbSaEj5PNbT2plNC7VqZWZfHDMsW+uXYqzU18tRC2wyOCXTVO3mPG74Lo22ZVvw2BkllTexUIST1oAxlNqmTjcRrYEnS5+CXcMCpjmGu4okAAAfmSURBVDJ+sEY9UU+LXaQvHDFLF09nC8xYasdIvGuUJFw2Lyaf1zKYE8uhrnliYoUb2WGCw6/6gXs8VcO3/rCL91pW/NKg5g66AkLSKZNn4mvsoRG/ZMPgzrfoO7YNaCRhG8n05X2aVbaIUqi4pmh5FS8ammboIhl6kVHpBVODtsBMeu8Q3UG3IYW1SMpXpnVssrUIZ72O6GNREUjLGxkWkga3R64VcdOUBNyQugGuIe9CNjeaEOqQEpvdesXv9IbBdLEcLq+uQ67MVHDCNSYool9GvuNUqnTjO9S5I/A5x/HrwxARH99GNJtoAhtWGBH/VsI6YGWUMgJYjALG4RVd4Be4vYCtdCPbDuBXjgGVGhFdxkZt46WkgtaCrFpqRE1qLSEbKljxPk8PV8Xs4zbBaTmZ+t9Ca/Ci+ShaVZEMLEu4nfQGDq+CpmVqxeuwG8QAANcwJrQ7xMU/i20CkWISENgSVVH7wOXYGKoxeaUhMU28nnLxtJUUIS9lshKahe+l06QTr2UkNol+i+WjaPkib8VvgxdUBwRVIfVgvwmNkchbvQAwCske/iYEI+fEBzdZgNQe0ANBG9UEPDVlgrXZJCjieJcu0l9LSlgX1MTcuAmCINQEnINim8zgi4xIHxBu4fhgnYsrHWzhhLcqoH2nZOmfIPIaug4vaaJt2sIGES7sI0mfy14sADgFAeom0k+i28HGBFiV0ldbLxBc0ySK1MqDbr82Y5MEEqHLYkKU3ooM82YwGYQbfeG3MNK+0wn1aGSfGqIlOGB3Eq1FOl47kYuFSNvg+4c7RmHc9EVv1EiRDC5DciAWPy9El0KEGYHuC8h2C9PqWezje1iNg2USGewcKNvRNxAKZL5rx2CsjJi0EdCAFzEruEyDPJFd74NPCTAaperuMpFIEROpZRgwYHFJc+NvVdq6TJDq0wjCHIfRPOZuM1ASXOeA7ehacoMwGWlTfFO8fQWzRRhZdGxE7s3QXVCw8AixRGODPbWwuQqJpcgYKsaeMEvSE4lOQ/zbpegpsJWDZby0XYOGJvRAamWT8CzQItJp5jLXMopIfDChtwyNZNhFxFHTonniRj4YM0TS1Fqx/IpgEDSZG2AiBm63ZARBdJnQJ27X0PxIfwf1P/RlplRJuDHesBQRWC9uNz5xyUQFCO9EHB/pwA/dHo5K+PiS0iVCmik5eEYUPqBKYinhEuZ6gImgUqvzjCDKJxPeMVcwV9FtB/BXiezbQAI3SsY4UiMKHAY/5P241AcTG+Q1ZuCHNEGQkhAUN+nRJ82UCHcLVlTfHMITISlwkkXrH6ZUpXaQzODGjY3N2TQ8r7M1CH0KKQ5GiGzlEGgYqV5QBmITArMSgTBuqPSEvjfpYKEjRXFIyHGNzoUiDRRka6j+Y1r/cjhlahJwrMsFbiowLcrKtFY0WKW/S2wPEWHXwHbpvh+0DE09iicUTNeB0ksERT3aU7EWJPFem4rJNDXIdmiWGh14pMkr64olkmch24h5TZ8aG63VOMKXwa5cuAJGtDZNM1aGfgxPKOWwOTiY7RAUN8mDCSQ6gzRaD06JGrOEFyToVpSmBvg0k43OSPcoykr9SBRSCHcVJLUiGU6g57iWpJHJ68AJeUoBd1HubJPXJjHPJiEkjUKC9y5vMshBOCIMpbgmem1IxHc5AGwSmsVpikTYkXF8srFLK4QE/17oijQMIQ6APD1UMkLq+DvZ2g5TRcUKto0mGBAfHNnZlEBCWrgfEtsGW3hQ304D7k7bRM8ghoMUTgK+VSBNgsOSSmA+mAzgErNwTZlkBk1NE10EjwgQabPVjMdtNK4iSkUiMQQYfG2c3mDLEHgGl61PObx/aQh3h2lHtHItobqlNT3H77UBESDjDQKGQa+hwd2NMEa4j2avWB7hZSU4p0N7zgzLXTyh2yPZODxhjzqqiTuCHKNFOl1o3haoKHmqhSGilG42mzzauEKJBDmVtCCMwKiP5BZ0iJpMeks2GfdxKWnpsC8MXo9We9Owksc7PZX9DtNbAjJ60bTExlDHF5d91D6CqhnjYRfTq8rG5HRvqLKCwyvqE6uxeFCKBFp1qvdo4hHIpckQeZ/FM9jsFEuNuDRRhR/MFkeC5Y166M0g4sSi4kYImAk2Y7lCyAUTISk5rS5etUlUluwNJhLSaUXe7dOjaR2pFW7CUPXdSH+EV2auFSyP+qMWe+tYxCFHuitrNKvdbCiswj4YgE5KSz06aiSfahPmrUhZeQ0XMbLZqUpfmueHp4qwG7ASgYRQSaD6vWjsOQrx1EWPqg2FBDvwWD9PJmxhAe6kTNhpw9FBORyvEMywxYZEbfVyC2odhsTEBQjHJoCxuBTaoALgksBX00570RpBciF9ahgSZEWiEbYzqTONV/doV6xerqEyRCApo91U44sQZNIGogFfY08gERJdfSvE6VsG2nvdGvfCsCMzKoNjmkbe9SCVTfClTaJcaWzBnbZNix8EVurULLhlu6kZkddDtMomvHUfu0GvaBqa1sWBh1QE/NVg0qt6Gf3qBrdsa6hctaAMhqGJLrmTZgj9emJuVw88TzWsBolELBPccpPglYjdces9uROjZc+th6tl7IFb8RiSciq9uluJ+jZ0GyWehoPbuOFcafY2jh9b+ezV5chDgOH1QBnoxYWBK/k0d9jzFrw7uSDXe5Ugw3B7kv+VLq/+Lt/lu/wnyf8HeWg68cpAU3IAAAAASUVORK5CYII=;" vertex="1" parent="1">
          <mxGeometry x="1560" y="2949" width="274" height="184" as="geometry" />
        </mxCell>
        <mxCell id="aqL1iTVGjlDUT3vSjXHd-8" value="" style="edgeStyle=orthogonalEdgeStyle;rounded=0;sketch=1;hachureGap=4;jiggle=2;curveFitting=1;orthogonalLoop=1;jettySize=auto;html=1;fontFamily=Architects Daughter;fontSource=https%3A%2F%2Ffonts.googleapis.com%2Fcss%3Ffamily%3DArchitects%2BDaughter;fontSize=16;entryX=0;entryY=0.5;entryDx=0;entryDy=0;exitX=0.5;exitY=0;exitDx=0;exitDy=0;" edge="1" parent="1" source="aqL1iTVGjlDUT3vSjXHd-9" target="aqL1iTVGjlDUT3vSjXHd-6">
          <mxGeometry relative="1" as="geometry">
            <mxPoint x="1695" y="2869" as="targetPoint" />
          </mxGeometry>
        </mxCell>
        <mxCell id="aqL1iTVGjlDUT3vSjXHd-9" value="&lt;p style=&quot;line-height: 140%; font-size: 30px;&quot;&gt;&lt;br&gt;&lt;/p&gt;" style="rounded=1;whiteSpace=wrap;html=1;shadow=0;glass=0;sketch=1;fillWeight=2;hachureGap=12;hachureAngle=-41;jiggle=1;curveFitting=1;simplification=0;strokeColor=none;strokeWidth=2;fontFamily=Architects Daughter;fontSource=https%3A%2F%2Ffonts.googleapis.com%2Fcss%3Ffamily%3DArchitects%2BDaughter;fontSize=30;fontColor=#666666;fillColor=#95D2F5;" vertex="1" parent="1">
          <mxGeometry x="1560" y="2949" width="270" height="190" as="geometry" />
        </mxCell>
        <mxCell id="aqL1iTVGjlDUT3vSjXHd-10" value="1. 遍历token环，获取指定token range内的计数数据" style="text;html=1;strokeColor=none;fillColor=none;align=center;verticalAlign=middle;whiteSpace=wrap;rounded=0;sketch=1;fontSize=30;fontColor=#FF66FF;" vertex="1" parent="1">
          <mxGeometry x="1490" y="2759" width="365" height="130" as="geometry" />
        </mxCell>
        <mxCell id="aqL1iTVGjlDUT3vSjXHd-11" value="发起计数类&lt;br&gt;历史数据迁移任务" style="text;html=1;strokeColor=none;fillColor=none;align=center;verticalAlign=middle;whiteSpace=wrap;rounded=0;sketch=1;fontSize=30;fontColor=#FF66FF;" vertex="1" parent="1">
          <mxGeometry x="2000" y="2419" width="250" height="55" as="geometry" />
        </mxCell>
        <mxCell id="aqL1iTVGjlDUT3vSjXHd-12" value="研发" style="text;html=1;strokeColor=none;fillColor=none;align=center;verticalAlign=middle;whiteSpace=wrap;rounded=0;sketch=1;fontSize=30;fontColor=#FF66FF;" vertex="1" parent="1">
          <mxGeometry x="2024.9999999999998" y="2253.75" width="210.47" height="55" as="geometry" />
        </mxCell>
        <mxCell id="aqL1iTVGjlDUT3vSjXHd-13" value="" style="edgeStyle=orthogonalEdgeStyle;rounded=0;sketch=1;hachureGap=4;jiggle=2;curveFitting=1;orthogonalLoop=1;jettySize=auto;html=1;fontFamily=Architects Daughter;fontSource=https%3A%2F%2Ffonts.googleapis.com%2Fcss%3Ffamily%3DArchitects%2BDaughter;fontSize=16;exitX=0.188;exitY=1;exitDx=0;exitDy=0;exitPerimeter=0;" edge="1" parent="1" source="aqL1iTVGjlDUT3vSjXHd-6" target="aqL1iTVGjlDUT3vSjXHd-6">
          <mxGeometry relative="1" as="geometry">
            <mxPoint x="1940" y="3029" as="sourcePoint" />
            <mxPoint x="2257.51" y="2809" as="targetPoint" />
            <Array as="points">
              <mxPoint x="2010" y="2779" />
              <mxPoint x="2010" y="2869" />
              <mxPoint x="2250" y="2869" />
            </Array>
          </mxGeometry>
        </mxCell>
        <mxCell id="aqL1iTVGjlDUT3vSjXHd-14" value="2. 将获取到的旧格式计数数据转换成新格式计数数据" style="text;html=1;strokeColor=none;fillColor=none;align=center;verticalAlign=middle;whiteSpace=wrap;rounded=0;sketch=1;fontSize=30;fontColor=#FF66FF;" vertex="1" parent="1">
          <mxGeometry x="1942.51" y="2772" width="365" height="130" as="geometry" />
        </mxCell>
        <mxCell id="aqL1iTVGjlDUT3vSjXHd-15" value="3. 新计数数据&lt;br&gt;存储到redis上" style="text;html=1;strokeColor=none;fillColor=none;align=center;verticalAlign=middle;whiteSpace=wrap;rounded=0;sketch=1;fontSize=30;fontColor=#FF66FF;" vertex="1" parent="1">
          <mxGeometry x="2378.84" y="2749" width="365" height="130" as="geometry" />
        </mxCell>
        <mxCell id="aqL1iTVGjlDUT3vSjXHd-19" value="" style="shape=image;verticalLabelPosition=bottom;labelBackgroundColor=default;verticalAlign=top;aspect=fixed;imageAspect=0;image=data:image/png,iVBORw0KGgoAAAANSUhEUgAAAOEAAADhCAMAAAAJbSJIAAAA21BMVEX////lOTW3HBygHBy3GhrlNzO0AAC5HR3kKiXlNTHiNzPbMzDoOjbkKSTDJCPOKynMKijkLyq2FhayHBzzr67++vroU1C1Dw/kJR/VLyy/ISH4z87pX1z98vL74+P0tbT2xMPyp6b86un1vr3qZmPrbWrmREDxnZzjHBXthILsenj62trui4nvk5H2wsH4zMvmuLjLaGjSgIDepKTrcnDnTEmqIB+/OzvBRkbqxcW9MjK7KSnZlpbIX1/Nbm7AQEDjEQbGUlLViYnHMS/HHhzdoKDPdnbhra3UhIT8sBHRAAAPR0lEQVR4nO1daXfauhaNfbFjAw4xZXACNvMcmg6hbYa2N+1rc///L3oSCcSApLNlCCRrea/V1Q9JhLZ05nNsjo5SpEiRIkWKFClSpEiRIkWKFClSpEiR4lWi3Sy1Wq1Ss33ojbwIwsbYHXoORzA0Rp3w0BvaMSYjy/MtYwHLD6yLyaE3tUPUek6M3oKk17s89MZ2g3Kn7rnr/OYcXa/eKB96e1uj3Jo5roDeI1yvP3jbChlOXQW/OUffH0WH3mZiRKPhhvoJhNUfdmuH3moi1HpDn6T3dJFBpfPWFJKZl0Atnusc+623pJBhaabFb87RsaZvRSHbg76ny4/D8v3xW1DIyShuPvWYWr5T7xyaAIFaz4+bT6uCWNM4R+YhW6/Y6LyvBKvRi9NpT11ZRCO5X9fxp68z+SiX+hvmxe2zH3Tq/rrbtxiNypVMhJmHHL++sLw9sETmxWnwH0aDWSyzcH3P6DWio7FCSVkUcPmqhDW6cByhvrmVx18oN6/mBshi9CqjSy6FbbWGsiig9Go8ZO1qMzlawFvaxmhQCTynO5g83c2Ainh4WP4qPGSnLufHtll//s1ys/RsQsoz2pOwaz+4QpZLM7GpfL7EpvgvOx5J0Jh7yO4h8+RwYBHJEbuHrvhvu2AwwDzkrLFfWku0R0OxeVnZn/+vMBKbeHgk4Hr+IfLkyRUdrri+M5MYi5FWaG45wZ7z5HKzSyZ/lu/1R9JIOprqheeWH1ztTyHDUoW8ARarjZtK0Qob9UAraPWDPRWugOTI9YNuCYgta+ONeI44tlnrxUPW6MIgN+VX4H2w49KrBTjGxYsq5OTKpwXLHXdqkwg1fuVOHa7ncLA8ufdieXITVBzX8Rgco9IbDRrvayTZ6EIrUbZ44eoF6ImSI+U+LJYB+r7jBcFwaFTWC4blchhddkqt6bg7M9RRkegMA2vXhauwZSSqvSzoun5laQbLo1697w6HAQvEHd93tfnNV/T8XRaumBiR0QsFr7VYrRO4EKt81sirOPrOrsJyZtP1ii3iDbkL+1pHhCFv5E7efTnNqjkG3eb2HrLZVSVHGvDHjwtOgOXy2cKxab77558v57m8iqTrbZknlxsVUXLE1IpbEAZmMn1Uj4JHY3NB+YZ8/uzE5GAMGd4V1BwdI3nhqtza9O6W6wTD/tW01Lms1WqXzUZrVAmGHkJzXpY6Cvvq38xnT49NM8aQXeTJyyhk+2IjOWJXZ101Nldrv7/os/iLIukN2O82VJkv1z5ziQVDfpFKYbX8YV07LJ+M15MjdlSzqTyaiEpd11fbECtoq+3MXPuEDNlFFpQX6QYznbC83OwFa9pi+S7ZVIiomNy/OpoEkp+tXt8mw0ero+LoGS1igwuEjc3kyMU6tWGp7yg2YTmXEjsT0z4pQ4bbM9VFWoGkYrK2yYGgM+Z1UVUOLwKFOlp9kZ3JG2fr1ydhyC5S6SKDAblBcXIUTEF+HB2Vv7M2f5Zf0z41Q36RcqtjZYnNtcXRi0efTByXGhFCPr+hfSRDbnUkFC2L2Jq4tiSrB0oxhfM9kfYBDBmyYobqOwyH4rN3mpoMI/QSTxX0Et1h/jTR0Tu6KXWExnH5XII7/PJbqof5XEa5sb7El/l6anh01FJ5jLU9ZcVmVMpQ4S+YycqoGQrs3ByWpRf1TQytXEToCsUM+fUplyEYZmUbc/s6FCcyWZBzFPvD43fw9RlPJplgWJAeveuWYIItIjiVQOAUVxh++Z2Vx95Ll0MwzMiFy/IqmLm5nCUtd2zGpTGGt2cKesbZ8nAohueKgMgdVt5T9MoNvXLcxl5XNXLBkF+f4mAKsT+hGGbMgopj4F7U5AlK2Bw525TjnvYbu8hHhqrr42eycu00Q/NYFdhafmCMW5ONukg5nLSuXL02y3w98aYLzzm+8vqMzXwLYMhwklNtyncCoz4aNGpRFLXZv8vGdFy3AjrBX13GddlCfl/4Q36RnOTxiTJX2uSHMmQc1StbvJQdBI7vPv4Hl6IWf+wFzqx30apFMg/ML/LkTHV9zLycb/DDGbLjU5cMHvfKgVN7KtA5lfGgMQnn+jxSROjKj5cmXDhDBnUxVgcWHxMKhk5l1HofxUzVpaygQWDdvMQZFjUYcoXckqM1vzbPM7rTRm3DPoWao5lLfvJA1ix+02Jomucqo6Pkxi0J8x2Vcas5kXiYsU7XcAlFwswZftVkyDgq9V1AbW5JPGPWHZVqkaq8h00MrUBiXuJS+k6bITc6OEc3cPr18bQzaZOly7Z+fJ4tEPxMs3qfgKGJK6Q1mrTRNomujMpzrDjsD8oPvSlK/xLjaPXhSfSOnh1V1auekbE/qj/1q5whV0jaQ/IhoUoJqa23tewoyq/4h/jYY5mUPgGIAuYDkxd0s+sKl9F8njIvcxTt6mfybBVS+gQoCuDPMRGNoAYso/HkT8nv9oE81qOjXza9lDIsX4I3ghQmJ1QV/lf4QeYlU7S/qi3MAm2bENM5IIXkjSD5qEQPlNEcUU99ImjfY/wYHuwqsuQ55CFZnnUlHrcvYb4eMi8MJ3coP4brbzapixzHp4j3YAmzaIxAnjM9g45elvxylqU1lnl9j90j6CFdr78xaEfLKGhezCezYLleRaf/e/3driL6yBRSOSOxvEh/1bKSMsqiM4xezOxpPk8cfYRMDpYnz4/YeA4DqK6NIvnb4Bf/cNfxdOakJ78ximie7HrBQli7ahlFzYvgg5kfvgLvMZq6LnySoIdkVqfHLWtL4etx8yI7WL+PqONkPC8LYs72kSPkIfmDTK2JvCKez6L8FBVPf0Tya/aWD5nJ++sbAPNkVz4hh3+YMl+1XIpfZaXuyY4V5aisJJPAzQuRj1N9/Jag6wCrRvLCFZYczflR+mDllAQjcR8/97Ic8/D6jB+52ImSoaywgJ8xfcjrS8PRC1uaXjl/pq4Iy5vTGhyV7av1ZXVsGbBq7iRhH/9xM7CDNE+xKqvGkpD481sgGOaU8ZQORyQKwMUCWG0RLBAMT4msRkOoiDxZNqqXlN9yY1RnRjxJlZCj3HNpRGeIfMajL7L3BCyHGz9J9KhzSkAYsWoE6e4aotJYde8RPGSNr6gcRUzEb3UvSP/wPEd7NNxJc5KF3JP0Z3O49rEwkNyHQNqxDilSTNO5Cr7dcwZcuqF2kFDa0R4wEkZrctQCxE/ouzT6+EAxTcdB6gCQIenxavXxITuN1ox2yk8RLGj28ZHD1DD9ID/qE5XOtKjbIQWKaVoOkuJHik3eUJ9o8UaToYk4JbD9RYJWC1rzM7f6DLHAcHuOgNoD1rv6PQnD7azbPvmZGftayVDR5QbaTck5Zkh+YKxetYk2lLIHDEQBeazftw5yYdBgV+179Q0eHZlEKX8XpiAJP6g0XbW/U/yOjn6SvUO63aTJEeAHjWEwfsjjBH+APj7tISmXFQO9FjZmUrU/Ym2nMtYAps8dsgvkWaGlgIz5F26rTapY4xDwkNTmyMIq3lH4n85DS+0fKEfaQ6oEjHSwcLzLTbwz03kLSPQJ5Ai0m2QcyfAadzuPGqMcbRHc4x3IEfCQIo6kiMOhQyxRRp40jyG8MyGTA3hI/vBdXNxOCkTFUiOMXw2z+OtrmzjHGtzHRxKe7FnhlKFwliNG8DVSMYGl4i/nA2W1WQmsvEZPCChczUH+Ft4nlUQe7r/AO0DKnafH8XFx0ZmTVgDmp7BUfo/i127Fnj7TyBagKTAl4M9SWmKyj99af5XlThtEUmg0aoiPod44MNqc+9S4R2wsU8gP1QfyGIk+fm0o3ACeLSRRSI1qHVJOUffxZW+f1ur/6nHU6QMDK+dPk3a5NTIinYEMHVMG9BmYM92mj69RFkUVEu9gIfzm9fft+vganVtaITVWg/pET9JOMDzZ3a6IbWmYF8h6LaWd6swAGqRRMpQqpMbYox4/oPeEjeXAHEUKqdPnRirRq3JFd9eg/q+G8+B9yNiCeeQJu+XfIvzWpB3pHyKz21olw+NFIz+bO4OlE+mzibYBdkgh37P73ugKP6A9K5J2uAcMzVnttjcaBxI0iLVZo8utr+R75Cf/ZK0+PtJuegGOSHNEbq0ypgZDcHZ7t0MndCatdqbaffwtNCIRP3p0kPiwJF1u4OmmHQ0PIQ1K6oOKifr4yEDG9sND5BgbVEmt/k3C0ISOF481BdhVzy5jqwumqg4p7SGTDw8B/KDhq4xdJR6XvVUWuk/IscxkHIHwE2rUZOzMJ6oeTPXx6XaTvoOkIwv0dQOZX3S9+57sxyAeUocj3UfElmPyeYe0EB+APv6uZnvm/Mg+mwHlWozfH7BFegs95AzEVQhHYEwIMs/Q6yIWCG+wWQVAeaghEaDzCEkC+LqIZ/y5xTjSTzcpHSQtBph5gV8XEUP54SfIkQySZRyPKX6oeana37T5zTl+wF86QFyEKM8hkzK0lAOMscnBX6wADmSQ1j53Gmvkn59SYQMaNUBjbEqO38F7RKrb2WzujCGXVX+rimFQb05egI95bf/9K9EP8B5393I+MAtj/H7s5jt02n9t8O0RW7+cb84PnGKzd8VvzvFXEeSYtP+7pAe2tlj4QobXegjvUAe5zUAGal4ytgmE19ocP39FOSZUSLRAwMKXu5f54rzyA/jmoWQKCcbpjB8aXifhCAcB6FtAFteH5lqMHx5eJwPsIDWMDtw5L9o3D3v48soJ+nYlUCHhxgfjlyj8TAAWBIDOA0mOMPPC3PvP7cIzPbQ/ZXCOKoKgeclsFV4n5PgLdZDSwpXgi52k/LYMr5Mh/ANWAsRRAPyyJB5+Hupbx8MHNAjgr1XPPs/O5teHopX8/h7yW9XLH9BKAMP5SeEsx3BWOEWfWGfh9af9fkm1ANffUOehDcbvvxf/XmMENbQSoM3v1wG+SF2MyUfYQaJg6drdXr57GwX8iA3K7+YFw+uEaP9n4kaH4vf186vjx9GGs2SC3899hNfJEH7emmPR/vbh1fLjKD9sxZHxO0R4pgkeBCQyOrw6/wb4ccCl8jV+94cMzzSBZ8nP/HZQvd4rJn81HGTGrh40vE6ICM2SX0V4nQztO5PmyO7vdYTXyRD+IdoB6PDEK0ZZFQQw+Xzr/Ob48FXsIIu2/dLV3b1BkCUz93CjNzzxynH949a2q0U+9ZjJZIpV2/y+r+ru3hBe//f9hgkmI3pz//fDGzafKoT8ixIj+KugUqRIkSJFihQpUqRIkSJFihQp1vB/ZSGbCzMEKOIAAAAASUVORK5CYII=;" vertex="1" parent="1">
          <mxGeometry x="2477.7899999999995" y="2961.46" width="169.07" height="169.07" as="geometry" />
        </mxCell>
        <mxCell id="aqL1iTVGjlDUT3vSjXHd-20" value="&lt;p style=&quot;line-height: 140%; font-size: 30px;&quot;&gt;&lt;br&gt;&lt;/p&gt;" style="rounded=1;whiteSpace=wrap;html=1;shadow=0;glass=0;sketch=1;fillWeight=2;hachureGap=12;hachureAngle=-41;jiggle=1;curveFitting=1;simplification=0;strokeColor=none;strokeWidth=2;fontFamily=Architects Daughter;fontSource=https%3A%2F%2Ffonts.googleapis.com%2Fcss%3Ffamily%3DArchitects%2BDaughter;fontSize=30;fontColor=#666666;fillColor=#95D2F5;" vertex="1" parent="1">
          <mxGeometry x="2460" y="2947.5" width="202.68" height="223" as="geometry" />
        </mxCell>
        <mxCell id="aqL1iTVGjlDUT3vSjXHd-21" value="计数Redis集群" style="text;html=1;strokeColor=none;fillColor=none;align=center;verticalAlign=middle;whiteSpace=wrap;rounded=0;sketch=1;fontSize=30;fontColor=#FF66FF;" vertex="1" parent="1">
          <mxGeometry x="2459.9999999999995" y="3119.5" width="210.47" height="55" as="geometry" />
        </mxCell>
      </root>
    </mxGraphModel>
  </diagram>
</mxfile>
